<svg xmlns="http://www.w3.org/2000/svg" width="245" height="9" fill="none" viewBox="0 0 245 9"><path fill="#6de0d9" d="M235.38 7.875c.019.05-.296.057-.908.022-.022-.051.321-.057.908-.022m-31.349-1.683c-.004.05-.002.1-.004.15-.353-.012-.72-.028-1.074-.04s-.777-.008-.776-.067c.423.015.808.041 1.089.002.28-.04.081-.088.765-.045m.609-.088.601.21 1.497-.014c-.168.115-.831.125-1.799.077zm3.323.244.612.064-.945-.04c-.109.032-.203.065-.303.097l.005-.218.617.026zm2.466.141c.057.038-.204.107-.615.08l.001-.106zm-9.501-.417c.011.008.003.014-.01.02l.635.042c-.465.086-1.328.03-2.114.02-.479-.005-.583-.007-.901-.071l.763.01.14-.076c.506.013.722.06 1.041.116l-.148-.083.587.022zm14.981.758-.308-.014.001-.066.308.014zM37.172 3.112c.7-.027 1.3-.059 1.836-.03.399-.13.95-.106 1.42-.147a85 85 0 0 1 3.653-.253c1.048-.043.894-.02 1.952-.1.758-.056 1.865-.093 2.71-.138-.034.03-.096.06-.14.09.452-.042.92-.079 1.376-.116.113-.01.22.008.295 0 .641-.06 1.162-.154 1.837-.187.452.028.369.116 1.084.058-.104-.035-.213-.07-.314-.106.461-.026.924-.012 1.369-.04.253-.015.477-.063.624-.075 1.245-.094 1.914-.067 2.737.007l.898-.18c.353.01.718.018 1.078.027l-.625-.096c.436-.046.688-.011 1.07-.027.265-.011.324-.052.62-.068.945-.052 1.95-.102 2.906-.152q.007.067.011.133l1.063-.144-.143.142 1.058-.188c.208.08.424.16.626.241.375-.042.051-.156.463-.226.35-.06.392-.008.76-.027.368-.018.373-.09.93-.125a71 71 0 0 1 2.376-.11c.751-.013 1.15.044 1.871.013.891-.038 1.54-.064 2.497-.095.235-.008.975.045 1.183.08.288-.122 1.2-.108 1.596-.16.394-.053.013-.115.532-.158.072.027.21.055.285.083.226-.022.042-.044.413-.058a59 59 0 0 1 1.953-.024c.599.013.51.089 1.157.051-.01-.031.001-.064 0-.096l1.376-.048q.001.049.005.098c1.49-.254 2.98-.37 4.586-.2.426-.038.782-.105 1.261-.126 1.23-.052 2.686-.004 3.874-.01.896-.005 1.469-.02 2.202-.102.247.077.517.155.772.233-.004-.067-.004-.136-.01-.202.461-.04.67.02 1.073.015.403-.004.158-.08.732-.105.212-.01 1.194-.024 1.727-.04.952-.027 1.991-.065 3.075-.099.919-.028 1.905.047 1.922.242.003.028-.396-.002-.158.072.371.115 1.21.243-.735.276.022.056.014.102.007.157-.845-.096-1.72.07-.695.105.395.013 1.836-.152 2.053-.226.549-.188-.395-.298-.062-.5.051-.03 1.615-.184 1.895-.195.4-.015.423.028.659.033.429.007.463-.059.908-.06.51 0 1.062.07 1.65.034-.193.072-.4.143-.598.214 1.012-.01.987-.189 1.663-.277l.644.095.722-.033c.81.12 1.881.376-.29.239-.041.103.083.173-.048.284-.089.075-.402.122.218.181.041-.067.098-.138.145-.207.919-.025 1.096-.197 1.366-.324.111-.053-.4-.113-.139-.151.405-.059 1.008.075.895.145l.313-.002c.002-.034-.001-.068.005-.103.62.023 1.119-.055 1.666-.064.45-.008.498.049.943.05.82 0 .955-.086 1.981-.107.371-.008 1.674.052 2.499.072.148.004.281.006.39.006.185 0 .277-.05.591-.033.7.036 1.534.158 1.391.307.162-.034.31-.068.465-.103-.388-.066-.805-.108-.78-.21.775.074 1.469-.019 2.299.01.194.007.546.123.784.1.01-.05-.019-.104.012-.154.234-.03.919.04 1.009.041.62.005 1.133.056 1.541.065s.674-.09.917-.083c.712.023 1.08.137 1.555.21.043-.033.103-.067.153-.1l.89.006c0 .034.01.07.007.103.69-.079 1.104-.105 2.039-.083.527.012.764.067 1.192-.037l.618.1c1.498-.086 2.648.105 4.108.166l.014.1.604-.016c-.2-.062-.409-.126-.605-.188.475-.013.919.055 1.331.07.649.026 1.083-.02 1.708-.02.005.031.016.065.022.098l1.366.129 1.235-.179.647.111.578-.037-.15.2 1.671-.319.608.266.758-.185 1.192.081.02.099.754-.032c0 .033.004.067-.002.1.491-.044.855-.09 1.549-.055.384.02 1.772.101 2.05.094.893-.025.844-.107 1.782-.043-.007.03.015.063.02.094l1.949.209-.025-.099-.429-.062c.563-.015 1.132-.028 1.685-.044 1.056.117 1.923.07 3.071.159.493.038.94.168 1.661.141.021-.027.01-.061.023-.092.725.01 1.793.132 2.414.207.452.054.353.094.896.057.147.054.306.106.457.16l.151-.183c.752.095 1.157.097 1.709.02l.456.088c-.445.049-.269.097.161.17.262.002.171-.059.307-.082.538-.09.838-.032 1.515.003 1.099.058 1.971.073 3.04.151.202.015.454.075.746.073.011.047.005.09.009.136.74-.014 1.281-.085 2.157-.037l.017.089 1.213.057.009-.088q.384.06.765.123l1.37-.02c.09.133-.582.033-1.07.082-.201.02-.282.08-.456.11l1.521.071c.111-.067.19-.137.32-.202.366 0 1.33.111 1.593.124 2.105.103 3.888.155 5.937.31.281.021.445-.018.883.01.567.038 1.506.161 2.082.242.325-.007.617-.017.927-.024l1.267.19c.597.03 1.208.026 1.795.07.717.056.967.124 1.641.101l.148.088c.999-.015 2.104.101 3.089.232.049-.035.109-.07.151-.104.767.025.984.12 1.707.178.358.029.63-.013 1.187.057.353.045.562.12 1.148.109.518.086.343.14 1.158.19-.058-.22 1.35.034 1.538.05 1.125.105 1.495.097 2.381.186-.004-.024-.009-.046.025-.066.575.013 1.741.158 2.214.196 1.246.1 2.38.185 3.346.252 1.116.078 1.542.157 2.538.258.847.087 1.549.116 2.388.201.18.018.457.072.722.086.014.021.011.04.02.06 1.089.019 2.027.115 3.201.237.683.071 1.161.112 1.877.184.29.029.493.014.874.054.29.031.695.097 1.081.119a.08.08 0 0 1 .018.054c.803.025 1.075.083 1.912.17.672.067.8.062 1.679.145q.78.073 1.951.193c.824.082 1.594.164 2.132.223q.22.026.441.056c.177.022.364.047.534.07.344.046.649.088.886.113.465.05.329.006.755.06-.114.017-.047.042.072.07.148.032.387.071.512.106.652.18.625.312.674.433.015.03-.385-.002-.306.027.315.027.52.046.856.077-.133.018.311.091.359.12.08.039-.249.02-.314.037h-.01c-.085.026.174.06-.011.08-.042.005.038.031-.066.03-.481.017-1.365-.075-1.486-.15l-.735-.059-.001.043q-.635-.071-1.382-.151.331.053.64.105l-.48.018c-.572-.064-.964-.083-1.484-.136-.517-.053-.512-.087-1.228-.11-.324-.036-.724-.115-.951-.138-.796-.08-.118.078-.161.106.428.021 1.061.06 1.561.088q.001.035.005.07c.454.037 1.209.133 1.471.115l-.003-.032.289.021.324.08.957.082.001.086c.549.042.906.102 1.513.122l-.665-.082-.548-.072c-.029-.037.059-.06.23-.072.171-.013.405-.018.823-.007.47.07.851.112.738.153-.035.015-.537.02-.512.042.07.043.654.103.532.134-.531-.032-1.323-.084-1.813-.11-.242.005-.503.009-.762.012-.208-.044.451-.015.596-.024.183-.01-.219-.055-.134-.074a14 14 0 0 0-1.437-.058c-.39-.047-.339-.066-.427-.105-.061-.028-.556-.052-.717-.086-.181.018.258.062.096.088-.088.015-.7-.003-.563.042a26 26 0 0 1-1.293-.116c-.342-.039-.687-.08-1.145-.114l.873.116-1.634-.139c-.647.014-.228.096-1.44.01l.644.14c-.867-.032-1.323-.11-1.964-.16-1.085-.084-1.435-.083-1.973-.212.319-.03.624-.062.93-.092l-.95-.041c-.075.072-.806-.032-1.076-.082l.293-.065c-.795.018-1.134.052-1.034.16l-.578-.03q-.006.042-.016.083l-1.218-.066.284-.028-.438-.067-.624.02-.8-.07c.235.084-.009.135-.005.206-.549-.024-1.081-.058-1.629-.08-.372-.016-.496.01-.922-.014-.518-.028-1.058-.1-1.678-.112.044-.04.461-.024.84-.018.38.006.489.012.408-.044.559.042.966.063 1.504.076-.034.054.036.067.6.09-.157-.05.198-.058.209-.093.013-.036-.329-.064-.179-.099.066-.014.662-.016.556-.045-.338-.01-.687-.018-1.035-.027l-.147.083c-1.063-.072-1.582-.01-2.597-.04l-.313-.079-.163.15c-1.009-.05-1.927-.062-2.106-.197l1.181.088.296-.112c1.062.043 2.101.086 3.105.129l-.298-.199 1.495.053.002.09 2.919.218.758-.039-1.22-.113c.439-.023.906.007 1.522.047-.435-.1.278-.114-.444-.225l.148.123-.904-.054-.031.052c-.741-.046-.632-.006-.602.053-.454-.02-.711-.038-.632-.08.047-.025.378-.026.161-.064-.43.028-.768-.049-1.192-.067-.324-.014-.357.026-.656.016-.537-.016-1.079-.044-1.631-.057.043-.041-.133-.087.345-.089.277 0 .612.056.863.02l-.743-.086-1.073-.002.307.11-1.245-.038c-.002-.063.144-.113-.31-.19l.629.005-2.437-.185c.601.071 1.146.138 1.806.212l-.318.06c-.848-.036-.335-.074-.901-.112l-.012.064-1.178-.063.454.089c.999.003 1.351.053 2.12.174l1.388.045c.105.057.197.113.308.17-.326-.009-.482-.075-.842-.105-.166-.013-.757-.033-1.021-.056.043-.017.063-.054-.156-.07-.293-.02-.73-.065-.887-.071-.482-.02-.587.008-1.069-.031-.096-.107-.983-.159-1.66-.25-.087.025.07.09.317.115.348.034.421.007.781.06s.642.16 1.148.217c-.68-.006-1.389-.015-2.099-.021-.119-.104-.796-.173-1.665-.183-.667-.076-1.96-.132-2.275-.227-.046-.015.231 0 .185-.029-.017-.01-.19-.107-.516-.106-.304.046-.602.098-.909.147.25.043.487-.02.605.03.064.028-.155.048.026.088-.366-.02-.614-.029-.937-.044l.755.139.15.006c.02-.032-.034-.073.034-.1.07.015.83.084.808.121-.008.013-.224.004-.154.03.118.044.827.125.037.118-.292-.003-.674-.059-.721-.099.193-.003.398-.005.595-.009-1.452-.059-2.21-.192-3.193-.354-.319.015-.447.047-.625.08-.244.045-.126.078-.787.038.006-.039-.156-.129.171-.134.454-.008.864-.05 1.212-.047.346.004.27.053.622.052.284 0 .425-.022.796.004l-.272-.066.436-.032 1.047.033c-.291-.046-.994-.074-1.314-.078-.318-.003-.512.054-.814.03-.2-.057.256-.074.236-.112-.029-.054-.601-.08-.492-.138-.216.027-.412.055-.621.083l.251.137-.938-.116.625.137c-.759-.045-1.444-.032-2.12-.095l-.3.08-1.519.027.896-.094c.086-.092.028-.073-.591-.12-.017-.001-.011-.03-.148-.037-.139-.006-.131.024-.15.024-.208.003-.406-.019-.613-.024l.587.157c-.33.041-.213.09-.875.06l-.043.067-1.217.03-.776-.222c-.26.047-.528.095-.786.143l.625.12c-.207-.007-.418-.018-.621-.024h-.007c-.127-.063-.232-.108.004-.155l-.594.095c-.42-.012-.653-.014-.583-.077q-.453-.03-.911-.057l.897-.006c.097-.121.553-.175-.273-.304l.582-.113.739.148c.192-.031.409-.06.617-.09.44.072.376.142 1.088.162l-.155.146.774.032-.301-.181 1.229-.1-1.54.026c.025-.043.058-.138-.494-.168-.211-.01-.446.019-.747-.04-.015.04-.003.077-.01.116l-.895-.038-.003-.055-.6-.01.45-.136.591.142.151-.11.94.08c-.154-.06.19-.076.231-.122.027-.03-.238-.053-.241-.089-.003-.053.022-.115.012-.171l-1.528-.112c-.048-.072.027-.111.458-.133l.891.08.808-.034c.1.081.209.163.304.244.769.008.591-.089.982-.14.071-.008.66.035.703-.002.175.034.307.065.466.099l-.914.028 1.064.09.46-.086c.809.03 1.56.057 2.396.09-.211 0-.423.001-.615.003.098.054.19.107.296.161l.781-.03c.49.047.216.08.534.131s1.125.092 1.472.153l.921.048-.603-.103c.103-.04.202-.082.307-.123-.275-.02-.572.017-.812.023-.24.004-.79.021-1.029-.034 1.02-.084 1.937-.051 3.193.122l.002-.104.742.197q-.74.026-1.496.056c.369.045.146.119.758.123.313.003.829-.08 1.139-.064.69.034 1.133.084 1.759.124-.48-.082-.948-.165-1.433-.25l.181-.055c-1.713-.146-.453-.215.317-.151l.775.213c.608-.009.358-.039.199-.104-.257-.106.818.028 1.186.056.009.034.005.066.007.099l1.207.041-.599-.102c1.218.084 2.029.068 2.08-.06l-.737.08-.437-.188.591-.026-.892-.008-.563.058.259.098-.9-.024-.013-.066-2.16-.1.001-.102.622.073q.238-.037.474-.07l.162.075 1.217.078c-.337-.17-1.197-.213-2.315-.217l-.629-.101c-.376-.002-.696 0-1.047 0l.158-.058-1.05-.1.294.156-.575-.032-.034.063c-.658-.045-.978-.024-1.51-.016l.309-.123c.584.042.792.091 1.213.055l-.472-.081.174-.094-.914.014-.304-.16c-.305-.019-.619-.039-.923-.056-.017.057.835.07.598.122-.238.053-.499.004-.896-.032-.014.021-.017.045-.027.068l-.932-.053c.434.103.888.155.153.19-.377-.063-.615-.102-.776-.174-.04-.018-.235-.1-.214-.117.065-.051.353-.054.226-.117q-.151.028-.307.054c-.385-.026-.666-.002-1.024-.02-.268-.013-.369-.049-.611-.064-.241-.014-.271.023-.583-.01-.381-.04-.538-.116-1.083-.132.198.067.402.134.603.2l-.306.08-.918-.05.152.16-1.082-.15c.218-.03.46-.042.555-.09.134-.066.082-.168-.238-.256l.618.032.006-.112-1.244-.109.309.247c-.594-.078-.736-.037-1.249-.029l-.004-.077-.737-.001c.046-.024.112-.046.145-.07-.415-.005-.986-.098-1.298-.107-.626-.019-.375.097-.507.12-.132.024-.254-.011-.407-.01-1.076.015-2.108.04-3.118.085l-.47-.187c-.247.035-.666-.03-.89.009-.231.039-.123.16-.779.16.057-.05.103-.106.156-.157l-1.052.076-1.514-.15c.046.029.11.06.145.089-.471.001-.773-.097-1.052-.123-.615-.06-1.056.002-1.493-.033-.58-.047-.493-.12-1.154-.13.011.043.001.086.005.13l-1.508-.106.001-.043-.597-.025-.002-.218-.302.075-.905-.103.602-.062c-.003-.051-.46-.023-.584-.05-.257-.057.261-.106.134-.167l-1.524.068-.457-.018-.004-.133-1.227-.095.619.092c-.037.08-.22.133-.315.213-.045.038-.004.097-.469.045-.184-.02-.356-.092-.611-.102-.404-.014-.684-.012-1.079-.053l-.022-.087-.898-.057-.289-.126-.896.012-.01-.092c-.733-.038-1.141-.022-1.212.092l-2.442-.038.31-.362-.918.015-.008.14c-.521-.01-.733-.067-1.085-.13-.36.027-.735.053-1.077.08l.921.054.005.14 1.37.096.789.256-.77.022-.155-.192-1.23-.039-.011.093-.623-.02-.008-.095-1.041.015-.395-.226.255-.108.59-.006c-.605-.137-1.386-.166-2.257-.239-.68.07-.147.162-.156.282l-.731-.069-.637.075-1.072-.175c-.364.23-1.681.109-2.915.121-.5.005-.624.13-1.228.106q-.225-.1-.451-.206c.638.049 1.141.038 1.81.047l.016-.144.61.015c.218-.092-.711-.218-1.235-.228.089.12-.644.163-.299.284l-1.204-.178-.905.469-.446-.258-1.847-.239c.001-.05.008-.1.006-.15-.402.058-.903.097-.744.206.14.096.859.067 1.154.108.291.041.084.104.465.145h-.003l.006.002c-.2.031-.375.06-.565.091l-.93-.218-1.066.026-.308-.206.615.038-.001-.124a16 16 0 0 0-1.854-.04l.621.312-1.24-.175.002.3c-.214-.096-.414-.191-.618-.287l.009-.074c.883.021.658-.064.139-.149l-1.344.024.301.131-.904.11c-.75-.095-.662-.252-1.514-.331-.103.088.89.191.575.258-.183.038-.638-.077-.876-.035.296.03.154.118.483.132.564.025.808-.007.728.115-.622.003-.784-.093-1.217-.146-.311-.038-.578.028-.913.008l.61-.04-.309-.309-2.141.016c-.127.062.234.084.265.139.053.095-.419.12.046.221l-1.236-.07.261-.071-.259-.078.612.005v-.151l-.925-.014.002.203-1.844-.076.159.103c-.379.21-.046.323 1.38.326l-.621-.161.773-.04c.429.063.513.121.469.21l.921.013q.003.051.009.101l1.221.07-1.84.024-.001.153c-.576.002-.64-.013-.64-.107l-.6-.013.312-.096-1.534.005c.395.092 1.267.122 1.235.245.946.031 1.396-.022 2-.125l.297.005c.452.074.722.162 1.385.172-.093-.053-.222-.103-.291-.158.656.022 1.705-.14 2.196-.108.996.065.034.242.237.348 1.037.065 1.007-.123 1.646-.162.534-.032 1.025.021 1.508.02.34 0 .412-.04.662-.033 1.188.033 1.997.23 3.199.256l-.92-.217 1.516.084q.012.047.022.095l1.508.034.001-.147.303.105c.533-.041.835-.094 1.505-.063l-.903-.168 1.191.08.032.092c.436.06.904.122 1.362.183.054-.031.102-.063.161-.093.336-.01.552.047.796.062.391.024.503-.042.869-.016.275.02.429.068.779.066.009.032.013.064.023.093.332.036.496-.026.748-.015.618.029.933.131 1.612.131l-.231.086c.294 0 .775.053.896-.007.12-.06.067-.07.59-.05.006-.031.019-.06.029-.09.589.008 1.086.038 1.628.095.35.036.14.096.176.143l-1.512-.042c-.034.16.95.245.898.402l-.898-.047c.105.042.192.084.307.126.248-.046.885-.042 1.151-.066.253-.025-.028-.076.079-.11.059-.018.229-.027.256-.05.056-.05-.305-.08-.247-.137.027-.026.267-.048.285-.09.025-.059-.027-.147-.009-.21.433 0 .679.067 1.086.08.406.012.648-.04 1.079-.014l-.613.098.611.134c.009-.044-.133-.118.155-.133.171-.009.466-.027.593-.02.494.026.735.084 1.241.077l.304-.083c.148.051.311.102.448.153-.35-.03-1.281.033-.858.105.319.054.914-.055 1.313.04.469-.03.906-.058 1.356-.085.108.042-.195.121-.319.14-.42.065-.943.027-.884.14l1.502.001.002.136.909.03c-.026.028-.164.061-.338.079-.027.002-.285-.01-.275.013.011.026.256.027.272.032.121.033-.017.06.026.091l.154.005c.045-.029.116-.054.144-.086l-.307-.01h-.002l.002-.045.308.054c.88-.044-.059-.184-.194-.245-.136-.061.232-.048.235-.088.004-.064-.559-.173-.287-.211.206-.029.859.046.727.116-.133.07.164.192.77.244.115-.07-.87-.174-.285-.207.466-.026 1.006.074 1.519.072.023-.086.304-.126.926-.1-.497.119-.176.274.913.343l-.308.12 2.105.163.308.097.3-.12-2.102-.118-.302-.362.604-.022-1.21-.089c.813-.014 1.396.012 2.097.098.699.085.406.036 1.096.065.366.016.855.098 1.337.096.049.129-.263.22-.623.321.259.024.525.047.777.072.374-.026.055-.083.227-.146.032-.011.496-.1.717-.118a17 17 0 0 1 1.985-.004c.01.028.007.056.014.085.544-.029 1.062.01 1.663.028.382.011.492-.028.919-.004.711.04 1.185.127 1.953.085-.201.033-.416.064-.624.096.554.015.942.044 1.415.1.104.012.166.017.276.025l.176-.084 2.142.057c-.186.079-.795.16.3.211l-.301-.171 1.494.029.311-.062c-.05.036-.114.073-.154.11.159.05.54.041.698.077.34.075.15.125.973.157-.352.03-.061.047-.086.091-.032.044-.868.091-1.135.026.183-.024.4-.046.583-.071-.318-.008-.91-.026-1.158-.014.053 0 .32-.067.516-.07-.123-.003-.263-.003-.391-.005l-.299-.047c-.431.024-.746.12.174.122-.248.011-.182.064-.487.055-.675-.017-.999-.098-1.648-.067.085-.031-.288-.15-.587-.144s-.379.04-.642.051l.768.192.763-.047.148.165.606-.054.453.078c-.641.088.673.374-.505.384-.132.001-.539-.066-.699.003.078.046.206.1.302.147l.59.024-.456.101q-.677-.201-1.362-.407l-.309.108c-.71-.024-1.185-.097-1.856-.067l.001-.204c-.34-.004-.493-.038-.78-.06-.122-.01-.202.019-.292.012-.498-.038-.85-.096-1.201-.159l-.152.201-.902-.115-.61.398-.313-.094c-.638.036-1.026-.083-1.67-.054-.24-.048.288-.078.442-.092.238-.02.411.02.606-.009s.211-.11.632-.119q-.283-.074-.568-.144l.268-.096c-.457.023-.73-.02-1.224-.044.052.081-.039.137-.619.148-.188-.126-.723-.238-.617-.361-.333.061-.761.16-1.075.214-.32.054-.496.063-.775.11.203.005.389.013.597.02.052.119-.231.22.001.343-.606-.056-.455-.158-1.196-.166l.3.095-1.202.053c-.028-.09-.139-.143.602-.115l-.299-.138.75-.019.743.108c-.105-.12-.724-.222-.561-.34.038-.028.693-.052.563-.092-1.123-.047-1.45.066-1.495.212l-.902-.029.152-.082c.286.06.589.074.446-.01a3 3 0 0 0-.314-.132c-.255-.077-.552-.124-1.039-.152l.448.06c.222.184.673.276-.907.235v.132l.912-.06c.126.172-.768.126-1.388.231-.085.015.019.137-.141.163-.427-.017-.732-.132-1.062-.154-.78-.051-1.274.016-2.024-.017-.062-.13.591-.072 1.244-.056.109-.1.205-.203.32-.302.333.009 1.161.045 1.166-.038.003-.045-.405-.106.067-.148-.427-.015-.822-.026-1.239-.04l-.155.175-1.397-.131.622.198-.931-.026c-.205.054-.402.11-.603.164.266-.16.811-.256.011-.43.344-.043.692-.085 1.058-.126.572.08 1.69.222 1.703.052-.625.036-1.068-.083-1.688-.097-1.048-.025-.651-.033-1.663-.091-.28-.017-1.611.028-1.949-.11-.209.027-.314.053-.483.08l1.509.089.008.137.449-.027.449.143c-.555-.003-1.144-.005-1.698-.009-.553-.003-1.081-.01-1.627-.013.329.082.877.1 1.353.107.401.005 1.063-.118 1.327-.049.382.1-1.131.17-.552.296-.317-.006-.609-.016-.917-.023.098-.028.212-.055.299-.084-.561-.019-1.599-.067-1.941-.14-.391-.083.016-.08-.245-.175-.223-.082-.959-.238-1.32-.332.04.06.1.126.149.189l-.619.03.935-.022c.004.084.689.208-.249.223-.255.004-1.445-.117-1.901-.09-.05-.034-.019-.062-.038-.093l-1.49-.037c-.088-.043.455-.07.535-.107.031-.015-.206-.03-.16-.051.139-.062.624-.063.523-.15l-.898.213-.905-.117.294.17-.294.116-.901-.069-.018.094c-.469-.015-.98.038-1.359-.028l.15.12c-.668.083-1.652.202-1.528-.053l-.77.081q.079-.095.155-.19l-.929-.067c-.023.066-.002.13.159.197.225.093.748.157.768.256-.821-.01-1.093-.161-1.713-.219-.441-.04-.68.003-1.061-.052-.312-.046-.368-.137-.736-.184-.56-.001-.729.046-.753.132h-.009l.001.001c-.199-.006-.396-.006-.595-.01l-.008-.148-1.209-.07c-.06-.095.037-.106.605-.09l-.303-.25-1.219-.023.61-.186c-.407.024-.812.052-1.224.076.032-.097.129-.24-.451-.3s-.39.037-.481.082c-.301-.002-.611-.009-.915-.013-.095.116.363.176.655.28l-.034.18-.629-.16-.595-.012q-.005-.075-.012-.149l-1.519.078-.458.293-.156-.203c-.203-.01-.396.005-.602-.013-.019-.002-.01-.042-.149-.044-.14-.002-.124.037-.149.04-.154.014-.263-.012-.42.003-.492.046-.741.103-1.398.076.152-.046.251-.056.605-.043l-.306-.256q.456.03.911.063c-.257-.073-.132-.104-.003-.174-.327-.078-.674-.094-1.201-.099l-.023-.098-.905-.013c.002.05-.002.1.003.152.898-.083 1.628.053.745.107-.364.023-.771-.03-1.191-.005-.362.02-.569.102-1.08.082.099.086.205.17.307.256l.918.012q-.002-.051-.001-.102c.203.005.407.005.61.008l-.605.12.592.159-.743.168c-.461-.113-1.033-.092-1.694-.146l-.271-.055.244-.048c-.317-.08-.672-.092-1.206-.09.035-.154.221-.228 1.105-.293.191-.014.86-.017.582-.094l-1.182.033-.505-.054c.098.06-.011.244-.624.137-.062-.011-.102-.14-.459-.147-.254.026-.5.063-.751.093l-.369-.067c-.303.074-.33.119.069.192l-.698-.027-1.414.084 1.512.014-.6.2 1.506-.14-.599.227-.906-.035 1.209.217-1.813-.12-1.071-.37-1.061.043-.31-.26 1.522.012c-.022.103-.137.168.612.16-.49-.155.133-.235.599-.354l-1.516.089-.002-.155c.623-.01.931-.057 1.517.014-.006-.035.009-.067-.009-.104-.243.026-.613-.05-.724-.048-.533.005-1.075.14-1.498.127-1.008-.03-.107-.257-.22-.29a.92.92 0 0 0-.738.078c-.17.103-.032.17-.774.151l1.228.113-2.146-.016c.337.114.784.17 1.534.166-.047.13.12.235.62.34l-.911-.033c.028-.088-.011-.148-.47-.204l-.313.042-.154-.103-1.222.173c.821.099.351-.106 1.075-.065.46.026.512.134.466.203l-.615.05c.999.062 1.77.066 2.755.019.007.084-.515.038-.77.1-.23.055-.15.16-.589.196-.941.035-.128-.128-.202-.142-.554-.104-1.327-.148-1.962-.231-.005.053.002.104.001.156-.208-.034-.402-.063-.62-.1-.336.08-.623-.005-.902 0-.603.01-.442.171-1.075.19-.045-.068-.102-.14-.151-.208-.347.031.113.109-.451.075-.29-.018-.584-.037-.905-.029-.039-.152.224-.296-.466-.417l-1.366.126q.457 0 .912.003l-.238.05c.505.091.612.168.552.288l-1.208-.002c-.006.034-.003.069-.013.101-.424.028-.745-.036-1.08-.047-.456-.015-.602.06-1.051.042-.028-.103-.144-.164.593-.156l.315-.309c-.804-.003-2.115.11-2.144.258l-.462-.05c-.204.05-.402.102-.612.153-.424-.064-.563-.098.035-.153.685-.062 1.212-.042 1.031-.21-1.277-.006-1.352.243-2.554.25-.566.003-.822.028-1.139.055a16 16 0 0 1-.79.052c-.471.02-1.428.036-2.032.002-.603-.034-.904-.138-1.69-.09l-.626-.258.606-.004-.001-.207.762.094c.559-.067 1.059.013 1.681.004-.113.103-.73.053-1.067.006l-.756.154q1.139.022 2.272.047l.761-.262-1.356.004-.47-.156 1.825.1-.007-.26c-.734 0-1.397.04-2.126.004l-.449.262c-1.061-.057-.693-.137-.165-.26-.396-.022-1.15.07-1.357.104-.207.035-.063.089-.176.102-.622.077-1.403.031-1.979.12l.453-.262 1.534-.032c-.059-.137-.951-.088-1.385-.02q-.077-.053-.155-.104c-.248 0-.476-.015-.609.03-.058.02-.247.089-.239.1.101.12.246.128-.365.22l.307.122-.924.058.302-.158-1.212.086.602-.03-.29.313-.908-.073.601-.055-1.207-.2.29-.131.607.048-.006-.156a19 19 0 0 0-2.418.019l.002.155-.753-.046-.463.082.61.046-1.366.142-.161-.102-.896.062c-.205.087-.413.175-.614.262-.894-.046-.142-.106-.349-.203-.028-.013-.668-.008-.571.037-.018.024 0 .047-.005.071l-.614.007-.014-.102-1.836.019c.246.047.511.094.753.142h-.01.001c-.335.018-.885.055-1.153.067-.273.012-.271 0-.492.007.109-.044.2-.087.301-.13-.406-.071-1.002-.05-.914-.17-.32.015-.647.077-.903.113q-.077-.026-.155-.048c-.134-.002-.121.047-.145.05-.766.08-1.46.005-2.276.035l-.316-.099.161.201-.916.014c.076-.157-.158-.27-.63-.396l1.22-.07-.311-.147-1.23-.031c-.05.06-.28.122-.29.182s.267.124.465.169c.344.077.573.062.003.153-.459-.061-.924-.12-1.385-.18l-.005.15-.59.013c0 .049-.008.1 0 .148-.583.008-.401-.095-.66-.131-.26-.036-.652.015-1.03.004-.194-.006-.291-.047-.659-.032-.56.025-1.565.208-2.22.19-.156-.113.613-.239.288-.33l.593-.084c.613-.003.144.12-.02.166-.164.045-.603.098-.57.145 1.014-.025 1.879-.098 1.804-.285l1.221.028-.32-.246c-.433.009-.732.076-1.063.021-.237.042.462.135-.32.102-.103-.004-.695-.086-.716-.103-.145-.121.974-.107.869-.246-.474.003-.152.072-.475.109-.443.05-.809.108-1.326.129l.004.198-.608-.013.292-.179-.583.008c-.017-.031-.013-.062-.043-.094-.649.015-1.74 0-2.065.12s1.066.039 1.361.087l.725-.009q.158.06.317.117l-.294.18-.619-.137-.604.038-.162-.17-.596.16c-.45-.02-.256-.089-.519-.13-.263-.04-1.112-.036-1.474-.02-.02.033-.016.063-.028.096l-.572.019c-.147.099-.146.21-.925.215l-.163-.143-.77-.03 1.217-.175c-.519.037-.97.122-1.402.172-.57.066-1.105.062-1.04.18-.476.035-1.255-.04-1.674-.047-.418-.006-.667.021-1.054.022.459-.08.863-.126 1.502-.139l.024-.091c1.185-.069.992-.228-.182-.189-.253.009-.218.103-.435.131q-.458.026-.917.05c-.075.085-.33.16-.294.246-.339.003-.61-.007-.915-.022v.142c-.612.022-.892.072-.9.168l-1.217-.013.244-.125-.899-.374c-.557.007-.896-.044-1.37.04q-.157-.088-.317-.175c-.478.085-.516.092-.128.169.317.063.723.162 1.22.195.3.02.404-.056.62-.018-.102.041-.198.084-.3.126l-.782-.068c-.722.01-.975.119-1.666.143l.001-.064h-.93l.318.13-.921.029c.009.06.002.124.018.183-.535.03-.123-.108-.49-.073-.664.064-1.542.079-2.083.198-.453-.068-.836-.049-1.503-.045-.521.003-1.343.004-1.83.02-1.544.053-2.79.074-4.323.117-.981.027-2.293.128-2.852.003-.347-.078.638-.057.554-.13-.95.002-1.36-.094-2.432-.026l1.219-.01c-.095.062-.195.123-.286.183-.427.02-.648-.001-1.074 0-.265.002-.57.038-.896.034-.378-.004-.556-.071-1.08-.03-.005.027 0 .055-.002.083-.357.001-.706.002-1.07.006-.143.03-.518.068-.277.093.563.057 1.374-.132 1.36.026-1.161.048-2.333.1-3.5.15-.547-.03-.513-.094-.487-.178-.105.03-.194.064-.311.093-.845.096-1.67-.007-2.24.002-.575.008-.56.087-1.111.079.112-.055.196-.114.295-.171l-.872.142c.093.028.193.055.282.084-.21.013-.536.024-.719.03-.724.03-.949.018-1.628.013-.2-.001-.77.024-.999.01.06.091-.246.162-.902.237l-.015-.15-1.823.17q.3-.052.6-.107l-.47-.122.163.102-2.444.134.01.109-.918.05c.279-.07.031-.088-.016-.143l.772-.01.75-.13q-.309-.03-.618-.056l1.227-.033-.61-.003-.018-.108c-.841.05-1.535.171-2.29.135l.176.204c-.748.054-1.015.026-1.53 0-.366-.017-.647-.03-.895.056-.27.094.375-.012.6-.003-.38.058-.206.09-.452.151-.27.067-.594.082.024.102l1.65-.235c.034.069.159.102-.583.14l-.002.105-1.506.084c-.002-.023-.021-.045-.013-.068-.661.024-.516.076-1.137.13-.322.027-.948.095-1.479.112-.53.017-1.204-.028-1.944.06.183-.046.397-.09.59-.136l-1.082.13-1.048.034.314.045-1.222.075.29-.146-.462.06-.001-.062-1.367.087-.029-.058-.75.019c-.709.121-1.65.171-2.568.261l.478.058.744-.079.012.09-.755.077-.613-.016-1.666.166.144-.067-.455.03-.15.068c-1.396.099-2.707.133-3.95.291-.98-.006-1.905.094-3.129.172-.299.02-.63.07-.97.067-.019.018-.01.034-.02.051l-1.367.052c-.862.137-1.215.127-2.157.163-.55.02-.917.031-1.53.07-.282.017.003.07-.714.095-.02-.026-.012-.058-.021-.086-.475.059-.708.072-.917.051.616-.047.99-.069.906-.116l.595-.049c.084-.048.39-.09-.155-.076l-2.58.257c-.14-.039 1.006-.183 1.193-.25-.783.064-.978.051-.93-.004a8 8 0 0 0-.747.087c-.435.07-.344.097-1.067.156.057-.025.1-.048.16-.075-.402.012.01-.05.055-.074.046-.024-.325.01-.402.006-.224-.012-.135-.032-.753.029L0 7.327l.46-.025-.16-.044c.742-.087 1.518-.17 2.278-.241.228-.022.47-.031.596-.042 1.115-.093 1.391-.132 2.548-.254.23-.024.935-.055 1.436-.113.171-.02.277-.063.674-.105.475-.05 1.447-.108 2.047-.163.488-.044 1.012-.112 1.503-.159q.007.024.01.05l1.51-.205 1.98-.15.02.052c.54-.069.829-.068 1.37-.114.54-.046.923-.121 1.51-.154q.314.016.624.034c-.051-.033-.121-.067-.16-.1.416-.054 1.01-.063 1.332-.09.983-.08 1.717-.189 2.608-.214.354-.01.787.033 1.05.02 1.08-.054 1.172-.146 1.839-.227.388-.046.367-.007.61-.026 1.27-.103 2.419-.26 3.652-.361 1.234-.102 2.493-.092 3.636-.162.911-.055 1.181-.144 2.004-.136-.008-.024-.001-.047.005-.071.416-.029.959-.07 1.352-.094.271-.017.435 0 .612-.012.533-.035.998-.143 1.496-.16.6-.019.685.05 1.413-.022-.002.019.007.034.01.052l.466-.044.306.054.447-.141-.919.021 1.207-.097.913-.036.03.072.895-.055c-.057-.09.296-.099.915-.133l.614.04-.315-.097.904-.134 1.077.093c-.053-.036-.11-.073-.161-.109.337-.035.481-.002.745-.015.265-.014.331-.05.62-.068.43-.026.928-.053 1.373-.078q.01.04.014.08l.306-.018c-.002-.027.006-.054 0-.08a38 38 0 0 1 2.26-.166c2.386-.106 4.69-.302 6.996-.291a30 30 0 0 1 2.628-.215l-.624-.101 1.224-.015.475.11.438-.288c.919.024.31.135.329.252.729-.035 1.582-.073 2.275-.106.281-.013.455.019.602.01.713-.045 1.18-.167 1.849-.121.292-.057.6-.113.893-.17.304.023.448.063.778.083.39.024.696-.015.614.087h1.22l.003-.138.59-.027.003-.138.922.01c.065-.112.889-.261.918-.083l-.612.047.608.001.016.14c.612.009 1.25-.153 1.211-.235l.768.064c.867-.103 1.16-.168 1.05-.322l.904.018.038.087q.528.03 1.053.063l.447-.16-.585.018-.499-.122-1.97.072c.284.128.298.178-.439.3l-.172-.277-1.058.23.15-.1c-.827.027-1.377-.02-2.148.084.06-.144-.025-.232-.79-.293l-1.07.138.926.007c.006.109.017.217.022.325-.737.003-1.549.039-2.256.043-.252.001-.31-.038-.483-.044-.503-.017-.685.012-.635-.087l-.896.087c.034.098.09.179-.598.253l-.02-.134-.575.021-.03-.086-.584.024-.04-.085-.897.043-.016.087-1.052.094c-.543-.032-.645-.151-1.387-.108l.136-.183-1.068.098c-.16.152 1.017.173.947.306-.729-.023-1.366.076-2.146.106l.608-.096-.804-.068-.737.059c.53-.125.871-.233.13-.29l-.136.225-1.213.065-.29.187c-.965-.026-.424-.077-.054-.19-.828-.16.377-.108.795-.066.215-.009.226-.056.138-.07-.416-.069-1.164-.004-1.819.033l.316.111-.907.114.002.043.617.073-1.825.099c-.209-.074.663-.21 1.202-.236-.032-.108-.504-.109-1.228-.059l.012.126c-.825.015-1.6.096-2.437.14l-1.046.35-1.08-.062c.28-.027.755.015.911-.034.156-.05.29-.111.301-.16-.869.065-1.401.163-1.975.28-.352-.034-.764-.04-1.05-.088-.185-.032-.09-.065-.654-.012l.319.1-1.075.106.17.07-.91.054.284-.216-1.199.233.138-.166-.3.05-.467-.08 1.214-.077q-.688-.015-1.377-.028c-.395.086-1.093.135-1.07.222l-.574.041-.001.115-.61.02.286-.191-1.372.28c-.46.03-1.037.082-1.466.096-.274.01-.438-.028-.63-.018-.556.026-.47.014-1.026.028-.453.011-1.956.117-2.22.065.184-.062.391-.124.588-.187-.347-.01-.549-.037-.938-.04-.39-.002-.705.044-.611-.04-.205.013-.4.03-.602.045-.006-.016-.013-.032.008-.05.5-.11.816-.166 1.674-.223.582-.038.752-.019 1.217-.13m156.919 2.594-.016.08.782.008-.31-.113 1.24.045.31.172-1.24-.044q-.001.062-.005.122l-1.374-.045-.154-.087-.292.048-.903-.005.887-.157q-.292-.06-.584-.123c.61.02.885-.01.898-.092.255.064.495.127.761.19m2.005.293-.155.014-.464-.076.156-.015zm1.844.063c0-.025.287-.015.287.01s-.287.015-.287-.01m10.641.404c.001-.023.296-.01.295.012 0 .022-.296.01-.295-.012m2.756.132-.606-.026.002-.035.606.026zm5.496.224c0-.02.286-.007.285.013.001.02-.286.008-.285-.013M189.406 5.74c.001-.026.291-.017.29.01 0 .026-.291.017-.29-.01m13.091.45c0-.025.294-.013.293.01.001.025-.294.013-.293-.01m-27.119-.858-.607-.015c.057-.057-.175-.09-.304-.146l.912.023q.001.069-.001.138m8.231.04.017.086.586.019q.001.043-.001.087l-.605-.017-.302-.184zm42.661 1.882c.461-.022.979-.018.912.062l-.452-.05zm-28.639-1.382c.058.042-.203.123-.612.098l.002-.12zm-26.55-.685-.621-.014v-.047l.623.014zm43.596 1.426c.278-.022 1.043.088.919.098-.271.022-1.042-.088-.919-.098m-38.09-1.389v.092l-.604-.015.454-.08zm.903.115-.3-.008q-.002-.069 0-.137l.3.008zm48.162 1.868-.63-.033q0-.044.002-.087l.629.034q.001.042-.001.086m2.991.07c.187-.004-.145-.084.635-.011-.053.062-1.026.09-1.797.038l.005-.111c.394.021.758.099 1.157.085m-40.17-1.63c-.338 0-.61-.027-.924-.049-.316-.022-.647-.03-.628-.084l1.24.038.315-.075q0 .086-.003.17m-21.021-.775c-.22.06-.362.109-.305.185l-.911-.02v-.19zm4.866.297-.617-.108.618.015q.001.046-.001.093m5.479.11c.001-.03.283-.022.282.007 0 .028-.283.02-.282-.008m38.115 1.386c-.024-.113 1.136-.007 1.819.02l-.77.061zm-9.467-.56c-.215.04-.362.074-.301.134l-.298-.012q0-.075.003-.148zm-36.878-1.07c0-.03.283-.023.283.006.001.03-.283.024-.283-.006m3.991.091c0-.03.291-.022.29.007 0 .03-.29.022-.29-.007m-19.846-.399c-.516-.04-1.035-.082-1.53-.122.495-.01 1.013-.02 1.53-.028zm80.324 2.571c-.294-.016-.037.036-.34.027-.186-.005-.42-.005-.664-.02-.61-.036-.777-.094-1.28-.064l.58.049-.006.153-.58-.02c.355.058.216.086.87.114-.007-.02-.32-.05-.15-.059.404-.023.572.009.869-.039.282-.044 1.635-.013.701-.14m-75.425-2.5c-.337-.026-.519-.066-.907-.064l-.004-.197.606.01zm1.512.027-.302-.005c-.02-.07-.258-.131-.3-.2h.008v-.002c.198.006.396.006.593.01zm52.721 1.648c.001-.021.28-.009.279.013 0 .021-.279.009-.279-.013m2.713.043c.315.044-.376.093-.523.074-.318-.045.381-.094.523-.074m15.893.928c.025-.05-.295-.097-.911-.132zM168.359 4.94l-.605-.013v-.048l.604.014zm3.97.066c-.001-.03.292-.022.291.007 0 .03-.291.022-.291-.007m2.746.089-1.221-.031.002-.047 1.22.031zm-28.659-.563c-.523-.061-.793-.046-1.346-.018l-1.431-.14c.809-.119 1.57.027 2.468-.05zm1.836.021-.61-.007a.3.3 0 0 1 0-.051l.61.008zm33.835.597c-.61-.02-.946.017-.921.107.614.02.945-.017.921-.107m4.841-.023c.391.015.48.083.62.128.239.077.407.128.311.202h-.001c-.799-.01-.517-.048-.622-.126s-.405-.13-.308-.204m-46.306-.854-1.212.144.605-.2zm29.246.627c-.001-.03.283-.023.282.007 0 .03-.282.023-.282-.007m43.559 1.548-.589-.027.001-.068.59.027q0 .035-.002.068m-63.659-2.002-.606.068v-.152l.151.002zm29.853.723-.312-.009.001-.09.311.009zm59.402 2.686a.9.9 0 0 1 .276.018c-.018.012-.276-.004-.276-.018m-99.92-3.491-.917-.162.915.007zm64 1.583c.002-.024-.291-.036-.292-.012s.292.036.292.012M171.4 4.89c0-.029.293-.022.293.008s-.294.022-.293-.008m2.159.052c0-.03.289-.022.29.007 0 .03-.291.022-.29-.007m3.632.117-.3-.008v-.092l.301.009zM152.19 4.48c0-.031.284-.027.283.004.001.032-.283.028-.283-.004m1.219.019c-.001-.032.293-.027.293.004.001.032-.293.027-.293-.004m35.12.77c.144-.012.829.115.515.142-.142.012-.833-.116-.515-.143m-26.603-.703.001.097.62.012v-.097zm3.081.135c0-.03-.291-.036-.291-.006.001.03.291.036.291.006m53.911 1.868c.234-.002.658.043.926.064-.003.021 0 .042-.002.063l-.634-.033zM109.19 4.188l-.152.026-.456-.075.151-.026zm60.371.398.299.125-.45.06-.45-.128.599-.057zm-17.982-.19-.603-.085.452-.07.15.003.001.151m-37.528-.281c-.001-.033.291-.034.291-.001 0 .032-.291.033-.291 0m30.198-.142c-.31.035-.236.06.003.1.458.078.998.071.932.19l-1.543-.068-.007-.255zM234.81 7.35l.605.161.856.074.957.082c-.881-.141-.899-.224-2.418-.317m-57.019-2.412-.599-.017h-.001l.001-.045.6.016q.001.022-.001.046m-26.514-.85-.903-.012c-.01.037.265.043.235.08-.031.039-.343.065-.239.12l-1.354.035-.77-.189c-.063-.1.18-.061.608-.067l.152.052 1.053.065c.105-.032.204-.064.315-.096h-.003c.038-.042.285-.055.301-.097l.302.004zm44.208 1.384-.002.04.618.024.002-.04zm-36.27-1.154v.098c.301.015.987-.014.906-.08zm4.107-.985c-.218.027-.232.114-.498.126-.267.013-.702-.117-.58.015.121.132.439.079.889.155.207.034-.113.129.337.167-.313.02-.611.035-.921.054l-.287.26c.656.12 1.115.25 2.136.263-.057.025-.372.063-.307.09l1.228-.022v.097l1.524.033q.002-.024.001-.048l-1.525-.082v-.096c-.397-.018-.572.017-.921.028.074-.082-.039-.138-.463-.203l-.771.007 1.54-.038c-.207-.07-.406-.138-.618-.207.528.017.298.117.81.16.273.024.857.024 1.182.03.326.007.495.025.462-.037-.977-.016-.462-.175-.913-.286h.913l-.311-.15-1.065-.073c-.401.045-.782.078-.766.17l-.617-.04c.074-.088.654-.104.616-.202-.706-.002-.649-.096-1.075-.17m50.257 2.816c-.301.016-.494.03-.443.08l.911.045c.06-.045-.152-.078-.468-.125m-53.158-1.906v.147l.601.012q.002-.074 0-.147zm35.993 1.104.764.149.763-.009-.759-.148zm8.384.464-.152-.043.304.013zm9.568.378-.001.067c.605.036 1.019.049 1.248-.003zm-68.881-2.38c-.009.081.097.18.316.257l.916.037zm-34.905.028.458.075v.026l-.911.005zm55.961.536v.096l.608.013-.456-.105zm40.207 1.488.891.04.001-.018-.446-.075zM101.879 3.973l-.605.007q-.002-.025-.002-.051l.606-.008zm51.828.153v.05l-1.229-.02-.001-.1zm-49.389-.207-.462.031-.017-.003h.009l.468-.028zm25.012-.047c.001-.033-.287-.034-.287-.001s.289.034.287 0m100.904 3.194.616.079.003-.08-.153-.01zm-39.312-1.907c.001-.026-.287-.036-.287-.01-.001.027.287.037.287.01m-31.111-.903c0-.03-.285-.036-.285-.005-.001.03.285.036.285.005m2.425-.025v.097l.311.007v-.098zm28.102.423c-.22.056-.413.109-.617.165.178.042.461.112.595.149.22.06.047.062.161.113.15-.052.306-.1.459-.151l1.203.045c.142.117-.661.023-.576.125.029.035.617.046.72.088.166-.076.302-.155.462-.23.518-.001.685.086 1.042.117.561.048.904.026 1.394.02-.017.093.41.173-.006.243l.93.036c-.387-.147-.639-.286-.614-.428-.796-.03-.998.025-.936.124-.852-.076-1.822-.267-2.714-.273-.047.04-.106.08-.147.12-.557-.062-.256-.115-.504-.183-.118-.033-.69-.037-.852-.08m-74.112-.826c-.001-.033.289-.034.29-.001s-.29.034-.29.001m-20.739.181-.613.01.455-.108.154-.003zm79.592.487c-.026.092.307.148.909.163.025-.091-.302-.148-.909-.163m7.918.35c.001-.027-.287-.036-.288-.009-.001.028.288.037.288.01m-26.819-.772c.268-.046 1.023.078.905.099-.267.046-1.025-.078-.905-.1m-64.966-.067c-.002-.032.285-.037.286-.006.001.032-.285.037-.286.005m25.31-.258c-.39-.008-.579.033-.92.056l-.003-.104.921-.004zm-43.295.654-.306.009-.006-.094.306-.009zm156.697 2.442c-.794-.06-.648-.016-.64.04l.32.02.314.128zm-.972.114c-.012-.018-.274-.035-.277-.017.001.017.265.033.277.017M100.661 3.834c-.131.042-.16.063-.303.004zm87.812 1.153c.001-.026-.292-.037-.293-.01s.293.037.293.01m-31.072-.874c0-.032.289-.026.288.005 0 .031-.288.026-.288-.005m84.033 3.695a.8.8 0 0 0-.256-.019.8.8 0 0 0 .256.02m-74.285-3.564v.095l.606-.08zm38.097 1.42c.002-.023-.285-.036-.285-.013-.001.023.285.036.285.013m.911-.07q-.447-.047-.899-.097l.594.066.009.11.74.068c.452-.008.865-.019 1.356-.024-.208-.022-.424-.043-.613-.064q-.001.015.001.029l-.592-.004-.593-.175zm4.275.314c.002-.022-.289-.036-.289-.014.001.023.289.037.289.014m-62.798-1.97c-.203-.006-.408-.005-.612-.009l.611-.094.001.102m-24.734-.23c-.001-.032-.287-.032-.285 0 0 .034.286.033.285 0m65.892 1.185-.001.084.616.023.001-.085zM82.363 4.09c-.002-.03.29-.037.29-.006.003.03-.289.037-.29.006m3.058-.043-.918.02q-.002-.024-.002-.05l.918-.02zm75.9-.324c-.953-.033-1.223.104-2.105.103-.008-.032-.007-.063-.021-.097-.581-.027-1.13-.115-1.474-.004-.298.097.578.067.856.093l.041.005c.067.015-.067.04.019.06.349.085.678.136.579.238.926.022 1.52-.097 2.404-.001q.148-.144.304-.286l-.903.03zm-28.053-.07c.072-.162-1.165-.142-1.506-.032.287.017.188.123.448.126.899.01.02-.212 1.058-.094m-23.445.059c-.002-.033.285-.035.286-.003.001.033-.286.035-.286.003m-21.05.265c0-.033-.005-.066-.006-.1l.607-.011zm31.722-.319c-.001-.033.287-.033.287 0 .001.032-.286.033-.287 0m-40.122.458-.76-.03h-.002l-.005-.095 1.212-.032zm48.345-.482-.604.052c.409 0 .734-.057 1.063 0 .508-.052.308-.068.205-.131-.159-.098.295-.14.245-.23-.297.104-.606.206-.909.309m99.367 3.201 1.198.103c.003-.018-.006-.037.001-.055l-.455-.028-.305-.075zM83.587 4.015c-.002-.031.288-.038.29-.007.002.03-.29.037-.29.007m4.264-.217c.062.048-.193.166-.6.161l-.01-.148zm-14.626.44c-.002-.029.288-.037.29-.008.002.03-.289.038-.29.009m26.2-.897.613.144-1.216.017.006.153c.714.024 1.42.047 2.133.073-.061-.06.202-.092.136-.156h.002c-.102-.097-.523-.19-.461-.3zm24.688.21.928.08q0-.027-.002-.053h.002l-.773-.052zm-17.996-.655c-1.022.045-.996.235-2.143.23l.626.199c-.661-.03-1.299.006-1.962.03-.143.004-.189.043-.383.044-.567.003-1.069-.101-1.001.07l1.208-.016.012.256a3.5 3.5 0 0 1 .894-.01l.033-.1.581-.011q.008-.077.018-.152l.581-.012.019-.099.614-.01-.286-.071.435-.082.77.043c-.65-.13-.646-.167-.013-.31zM223.676 6.48a6 6 0 0 0-.428-.026c-.225.02.193.082.414.113l.733-.015h-.002c-.35-.013-.489-.044-.717-.072m6.871.458-.001.054.612.04a.3.3 0 0 0 .001-.053zm-70.126-2.891-.905-.019V3.98l.904.019zm-48.799-.686c.065.145-.347.245-1.202.268l-.006-.206zM238.167 7.5a1 1 0 0 1 .279.02 1 1 0 0 1-.279-.02M97.307 3.678v.05l.912-.09-.153-.023zm-23.79.482c-.324.005-.53.023-.76.064l-1.391-.093 2.144-.065zm9.144-.221c-.002-.03.29-.038.29-.007.003.03-.289.037-.29.007M233.568 7.04c-.067.063-.019.12.94.19l.609-.055zm1.539.22c.002-.016-.284-.036-.284-.02s.284.035.284.02M133.568 3.552v.052l.611.003v-.052q-.311 0-.611-.003m-46.934.322-.61.013-.006-.099.153-.003zm80.212.22v.047l1.212.03.001-.048zm1.814-.003-.001.094.301.008.001-.095zm12.821.33c.115.16.953.17 1.832.193l.001-.132-.924-.055zm-53.984-.944.002.052.612.001q0-.026-.002-.051zm97.221 3.037.634.097.001-.058zm-69.162-2.657-.616-.011v-.1l.615.011q.002.05.001.1M5.589 7.543l-.008-.044.609-.046zm59.952-3.852c.514.087.049.121-.245.215-.148.047.155.072-.077.109-.232.036-.717.038-.86.103.199.044.42.09.626.134l.444-.057c.563.04.205.086.165.171l1.508-.189-.008-.134-.61-.025.906-.1-1.529-.059q.758-.06 1.514-.123l-.914.01.3-.101zm76.277-.126c-.047.041.1.052.32.057zm60.687 1.652.442.058q.089.06.174.123l.323-.097.603.027-.001-.076zm6.076.422c.001-.023-.297-.037-.297-.015 0 .023.297.038.297.015m-31.384-1.447-.001.182.599.019-.299-.191zm38.744 1.415c.011.074.459.128.241.2-.143.046-1.309.099-1.179.18.772-.03 1.221.02 2.141.085.034-.048-.327-.045-.613-.084-.421-.058-.289-.112-.293-.164l.607.133.301-.16c-.397-.063-.809-.125-1.205-.19M56.136 4.676l-.91.037-.005-.042.912-.037zm49.08-1.307.006.155a3.7 3.7 0 0 0 .917-.087 3.7 3.7 0 0 0-.923-.068m-.311.132c-.002-.032-.292-.029-.291.004 0 .032.292.029.291-.004M59.159 4.535c-.003-.027-.293-.016-.29.011.001.027.291.016.29-.011m172.304 2.4.444.068.148-.003-.443-.069zM61.297 4.254c.372.074-.117.177.63.197l.004-.157zm2.13-.17-.897.1.316.189h1.22l-.927-.122c-.076-.103.461-.066.907-.1-.04-.12.487-.213.896-.325h-.001l-1.53-.009zm101.585-.083c-.365-.007-.507-.093-.581-.138-.073-.044-.026-.076-.032-.118l.921.023c-.103.077-.203.155-.308.233m-20.15-.76c-.09.046.142.222.326.246.483.062.685-.008.606.122.785.052 1.528-.181 1.528-.286l-.459.096c-.664-.059-1.332-.122-2.001-.177m-50.325.354c0-.032-.292-.027-.29.005s.291.027.29-.005m49.71-.108.001.103.31.003-.002-.102zm27.146.487.317.148 1.229.082c.047-.168-.517-.213-1.546-.23m2.159-.263c.022.043-.159.091-.162.131-.004.05-.151.167-.117.194h.001c.12.094.408.105.278.186q.46-.012.918-.021l-.301-.168.91-.114-.609-.015c-.306-.064-.609-.13-.918-.193M49.724 4.827l.007.081.306-.013-.007-.082zm4.28-.105-.609.026-.003-.042.609-.026zm126.553-.288.616.02-.461-.104-.153-.005q-.003.045-.002.09m40.238 1.783-.001.062.31.018a.4.4 0 0 0 .001-.061zm4.56.278c.054-.056-.144-.08-.815-.11-.577-.023-1.014-.007-1.019.056.71.048.956.064.878-.02zM54.619 4.675c-.002-.026.285-.038.288-.012.003.027-.286.039-.288.012m23.767-.795c-.048.014-.012.043-.148.045s-.138-.02-.156-.037zm52.768-.703c-.189.16 1.015.129 1.441.165s.35.07.678.105c-.223-.088-.412-.175-.622-.262zM14.52 6.607c-.59.085-1.273.118-1.979.173.544.01.93.061 1.538.059.284 0 .292-.023.477-.045.046.014.1.028.15.042l.604-.083-.334-.138zm98.605-3.23c0-.032-.286-.03-.285.002 0 .033.287.031.285-.002m28.084-.178c-.064.18.742.227 1.513.324.043-.177-.636-.249-1.513-.324M22.318 6.314c-.003-.02.285-.038.287-.018.002.019-.285.037-.287.018m153.36-2.1c0-.028-.287-.037-.286-.008-.001.029.286.037.286.009M124.09 2.693c-.027.106-.141.167.622.158l-.767.2-.444-.045c-.093.133-.663.179-1.213.247l-.298.04q.151.028.298.044c.568.062 1.094.011 1.818-.018l-.311-.157a6.5 6.5 0 0 0 1.383-.097l.773.046-.311-.104 1.23-.076c-.525-.102-1.115-.08-1.841-.083.063-.116-.42-.11-.939-.155M56.438 4.557c-.002-.026.285-.039.287-.012s-.285.039-.287.012m-46.316 2.48.008.05.905-.093c-.02.02.037.035.146.04.279.014.31-.014.617-.036.306-.023.42-.004.77-.038l-.013-.077c-.732.09-1.11.1-1.227.039zm-.3.11c-.001-.016-.289.005-.287.02.002.016.29-.006.287-.02m184.414-2.274c.001-.025-.299-.038-.294-.012-.006.026.294.038.294.012M93.612 3.336c.135.032.24.134.469.14.44.012.705-.003 1.075.034-.06-.05-.114-.1-.17-.149-.457-.008-.92-.018-1.374-.025m114.98 2.178-.002.036.623.032.002-.036zM31.11 5.452c.025.044.067.086-.291.136-.284.04-.183.001-.474.022-.2.014-.453.062-.736.069.15.047.315.092.472.14l-.167-.125q1.066-.057 2.131-.11l-.922-.031h-.003l1.216-.073q-.613-.016-1.226-.028m125.968-1.79c0-.031-.289-.037-.289-.006-.001.031.289.037.289.006M11.285 6.596c-.697.063-.42.102-.64.147s-.713.06-.854.11l.614.038-1.524.07.315.049-.911.071.026.165.911-.068-.015-.071-.604.045h-.001l-.005-.035.888-.107.02-.048.744-.034c.517-.074.591-.113.175-.125.505-.084.941-.148.861-.207m49.09-2.24c-.003-.027-.293-.015-.29.012 0 .028.291.016.29-.011m48.511-1.05.153.025.454-.081-.153-.025zm85.047 1.351c-.894-.112-1.844-.18-2.69-.113l.6.212.302-.071 1.493.144c-.003-.056.011-.109-.004-.166.195.025.072.004.343.039.285.035.238-.01-.044-.045m31.289 1.22c-.513-.057-.533-.013-.648.01-.143.029-.166.063-.457.072.275.044.618.092.93.137-.937-.058-1.379-.128-1.514-.222l-.298.04-1.193-.11-.012.06q-.75-.067-1.522-.133l-.022-.062-.937-.062c-.11.045-.234.09-.333.135l-.547-.03c.012.013.021.026.004.038.19.004.37.006.563.011.167-.018.581.054.611.068.11.049-.029.07.013.112l-.631-.022c.308.04.638.08.943.12-.209.022-.734 0-.608.06.074.034.507.085.773.058.338-.034.539-.085.464-.157.701.029 1.194.09 1.83.145l.004.001c.041.02.158.04.269.062l-.574.04c1.151.067 1.66.033 1.782-.068.261.026.434.061.764.08l1.108-.087-.619-.186.623.015c-.245-.033-.517-.097-.766-.125m-90.739-2.579.002.052 1.233-.044-.157-.104zm-66.177.703.612.07-.006-.09zm141.529 1.541-.002.036.614.031.002-.035zm-134.2-1.775.006.095.304-.01-.005-.094zm22.87-.387c0-.032-.29-.028-.288.004s.289.028.288-.004m.609-.009c-.002-.032-.29-.028-.288.004 0 .032.29.028.288-.004m81.444.795-.001.135.309.01.001-.134zm40.549 2.008-.002.03.615.038.002-.03zm8.194.438c.091-.022-.214-.106-.623-.092-.088.003-.081.067-.437.048-.195-.038-.388-.082-.588-.122-.281.008-.615.024-.727.052-.064.016.082.031.118.05l.16-.048.594.123c.628.048.894.044 1.358.035l1.086.1.312-.058zm-75.298-3.057c.001-.031-.293-.036-.292-.005-.001.032.292.037.292.005m-94.856.698h-.002c.069.054-.17.088-.295.142l.92-.037c.056-.045-.215-.134-.623-.105m172.008 2.581c0-.016-.288-.036-.288-.02-.001.017.288.037.288.02m4.262.216c.192.07.535.13.831.156s.638.025.67-.043zM113.422 3.038c-1.699 0-1.002.21.311.206-.107-.069-.207-.137-.311-.206m-43.153.843h-.453c.38.044.638.1 1.23.075-.34-.055-.026-.077-.01-.14zm1.388.009.002.046.92-.029-.002-.047zm-24.1.798.01.12-.607.009.919.015-.015-.16zm161.65.804c.001-.023-.294-.038-.294-.015-.001.022.294.037.294.015M50.917 4.487c.022-.17-.627.004-1.035.032-.552.04-.38-.02-.785.08-.106.026-.418.12-.3.149l1.532-.03-.321-.169c.301-.02.618-.044.91-.062m99.144-1.122.001.1.303.005-.001-.1zm-22.879-.253.003.104.613.002-.463-.105zm1.224.003q0 .053.002.104l.608-.102zM7.195 7.05c-.266.011-.347-.008-.6.051-.254.06-.046.083-.179.139-.097.04-.63.113-.541.146l.907-.082-.028-.17 1.521-.124h-.002c-.242-.028-.554.018-1.078.04M58.23 4.355c-.001-.027-.289-.015-.287.012s.29.015.287-.012m97.039-.976h.001l1.05.192c.206-.043.446-.03.759-.034l.31-.24c-.809.066-1.027-.05-1.838-.087zm77.969 3.574c.001-.015-.312-.038-.307-.021-.005.015.309.038.307.021M190.016 4.58c.001-.027-.289-.038-.289-.012-.001.027.289.038.289.012M15.757 6.653l.302-.046.458-.02c-.384-.008-.642-.028-1.228.018q.236.022.468.048M167.754 3.83c.442-.025.671-.049 1.056.027l.15-.02c-.375-.068-.625-.14-1.205-.15q.001.07-.001.143m38.708 1.43-.001.074.297.015q.003-.038.002-.074zM97.586 3.293c0-.032-.29-.028-.288.004.001.032.29.027.288-.004m78.093.738c.001-.029-.287-.038-.287-.009 0 .03.288.038.287.009m-77.18-.753c-.001-.032-.289-.027-.288.005 0 .032.29.027.288-.005m122.61 2.803.613.1.001-.062zM81.699 3.574c0-.03-.293-.023-.29.008.001.03.292.023.29-.008m26.536-.623-1.188.244c.745.013.502-.069.906-.14.167-.029.411-.025.607-.031.204-.07-.246-.12-.218-.175.059-.113.624-.19-.401-.18.106.095.194.188.294.282m136.018 4.846a1 1 0 0 1 .185.008c.064.006.061.008.06.014 0 .006.002.01-.062.004a1 1 0 0 1-.183-.026m-84.739-4.602.609.088-.005.22-1.092-.116-1.327-.058c.376.058.134.138.767.138.491 0 .829-.018 1.335.031.008.032.01.064.016.096.741.03.631-.034.602-.134l.301.154 1.203.026c-.16-.107-.3-.172.001-.266-.159-.028-.302-.057-.455-.085l-.3.09-.458-.156zm-74.746.303c-.002-.031-.292-.024-.29.007.002.03.292.023.29-.007m156.684 4.004c-.377-.008-.452-.036-.849-.07q-.002.032-.001.065l.849.047zm-101.759-4.37.001.104c.304.012.993-.025.909-.095zm62.503 1.88-.001.076.311.015q.002-.037.002-.076zM117.42 3.043l.461.076.152-.026h-.001l-.461-.076zm27.746-.002c-.693-.012-.801.04-.925.141-.271-.008-.703-.062-.923-.037.297.047.616.093.924.14.011-.035-.027-.07-.001-.103.628.002.942-.034.925-.141m-25 .072-.31-.232-.916-.025zm.909-.106.608.104-.003-.105zm25.627.08c.489.054.106.116.361.18.107.026.633.002.709.064.071-.009.105-.015.16-.023l-1.072-.244zm-48.195.115h-.002l.764.04.15-.029-.915-.062zm1.214-.019q1.216.008 2.427.018l-.302-.176c-.535-.02-.726.007-.954-.083-.109-.043-.186-.133-.579-.124zm52.442.19c-.001-.031-.283-.036-.283-.004-.001.031.284.036.283.004m-47.902-.507c-.794.07-1.507.137-1.519.302.566.058.043-.027.388-.08.351-.055 1.333-.085 1.131-.222m-99.62 4.55-1.212.12q-.006-.021-.009-.042l1.214-.121.008.043m221.947-.971c.002-.018-.289-.037-.289-.019s.289.037.289.019M62.504 4.098c-.001-.028-.291-.016-.29.011.003.028.292.017.29-.01m-20.412.868q0 .02.003.038l.609-.032-.004-.038zM18.636 6.34q.003.028.01.057l.607-.042q-.232-.014-.465-.026zM170.161 3.8l-.3-.008.001-.094.299.008zm-76.253-.62h.002l.005.1.608-.112zm111.046 1.987c.001-.024-.287-.038-.287-.014-.001.023.287.038.287.014m-33.251-1.44h.002l.309.126.617-.075-.773-.07zm-120.18.649-.296.117.921.02h.002l-.32-.151zm97.619-1.1c.001-.032-.288-.036-.287-.004-.001.031.288.036.287.004M55.346 4.369c.183-.046-.427-.092-.006-.124.5-.04.915-.03 1.365-.02-.302-.179-1.431.006-2.441-.019q.542.08 1.082.163m1.668-.135.46.044.15-.027-.462-.045zm26.83-.934q.003.073.01.147l.613-.015q-.003-.074-.009-.147zm.929.124.918-.022h-.002v-.024l-.462-.063zM38.12 5.144q0 .02.003.037l.612-.034-.004-.036q-.306.016-.61.034M11.008 6.82c-.028.05.39.04.773.043.512-.074.475-.111.436-.162zm75.284-3.457c-.002-.03-.29-.024-.289.007 0 .031.29.024.289-.007m-69.47 3.07c-.396-.024-.416-.085-1.241.055l1.082.018.753-.095c-.055-.035-.383.035-.593.022M43.606 4.83l-.46-.034-.153.008.012.115zm48.312-1.712-.148.153.909-.068-.317-.194zm-22.57.572c-.307.052-.504.09-.445.153l.606-.02-.01-.138zm.76.02q.004.045.006.092l.305-.01-.006-.093zM24.85 5.822l-1.06.04-.015.062-.588.072 1.513-.1.628.021-.323-.105.913-.109-.616-.006zm72.424-2.677c-.002-.032-.291-.027-.29.005s.29.027.29-.005m24.696-.4-.902-.025.763.234-.004-.156h.462l.293-.001-.293.207q-.002 0-.003.002h.003c1.432-.08 1.112-.288.001-.352q-.149-.009-.314-.013zM28.681 5.67l.003.033.61-.038-.003-.033zm195.268.441h-.002c.286.022.177.05.162.07-.602-.038-.856.003-1.474-.035h-.004c.002-.055.379-.051.601-.082l-.596-.1zM153.39 3.22l.001.1.62.011q.001-.05-.001-.1zm31.287.917-.453.07.601.023q.002-.045.001-.088zm-126.752.08.599-.09-.46-.046-.15.006.01.13m25.302-.828c0-.03-.293-.023-.29.008 0 .03.291.023.29-.008m51.557-.451q.002.051.002.103l.309.002-.002-.103zm4.04-.018c-.311.042.374.176.514.157.311-.043-.373-.176-.514-.157M43.59 4.675c.414.028.324.091.32.158l.608-.032c-.292-.052-.307-.125-.777-.153zM21.973 6.08q0 .015.003.03l.607-.042q0-.015-.004-.03zm198.211-.133c.001-.02.298 0 .296.019 0 .02-.297.001-.296-.019m-92.7-2.99.916-.075-.613-.08zm-4.026-1.201c-.425-.004-.792-.057-1.168-.05q-.169.003-.342.025l.342.021.871.056c.024.059-.431.087-.299.157h-.604v.026l.031.004.576.074q0-.053-.003-.104h.302l.004.155.908-.026c-.428.067-.268.144-.3.235-.249-.005-.471-.02-.594.029-.233.092-.359.181-.302.283.736-.069.799-.18.896-.312.819.011.748.111 1.226.18 1.011.143 1.393.058 1.549-.125.957.129 1.508.129 2.453.007-.123.085.435.127.578.185.141.057-.218.071-.235.107-.029.061.257.088.245.143-.007.03-.258.035-.235.06.059.059.57.088.882.08-.26-.1.392-.19.243-.277-.24-.142-.863-.186-.562-.348.62.068.771-.053 1.36-.005h-.002l1.057-.113-.604-.05-.011.071-1.806.045c-.023-.103-.391-.166-.92-.211l-.006.102h-.913l.295.078c-.097.044-.175.006-.275 0-.446-.027-.554-.007-.932.022l.607-.258-1.071.101-1.081-.158-.274.182.589.131-1.544-.053q.15-.105.304-.209l-1.224-.052zm8.891 1.168.001.052.603.003v-.052zM62.495 3.966c-.003-.028-.292-.017-.29.01.002.029.292.017.29-.01m-23.16 1.037.003.037.611-.034-.004-.037zm157.405-.345c0-.025.29-.012.29.013s-.291.012-.29-.013m-57.356-1.786c.134.06.369.091.307.157l.605-.07a3.7 3.7 0 0 0-.912-.087M30.192 5.475q.003.033.009.067l.6-.105zm189.028.38c.002-.02-.276-.037-.276-.017-.001.02.276.037.276.017m9.461.578c-.033.015.103.04.301.065.212.026.472.05.632.055l.001-.054zm-215.244.215c-.002-.017-.291.005-.289.021.002.017.292-.005.29-.021m207.83-.773c.566.003.634.007 1.07.085l-1.845-.041c-.097-.072.312-.046.775-.044M80.166 3.325c-.003-.03-.288-.022-.287.008s.289.023.287-.008m1.667-.215c-.433.067-.502.121-.448.206l.306-.008.298-.178zm144.76 3.193c.001-.018-.289-.038-.289-.02-.001.018.289.038.289.02M60.339 3.81c-.007.03.02.057.006.087l-.613.026c-.05.084.045.094.622.062.007-.03-.02-.058-.007-.088l.614-.025c.051-.085-.045-.095-.622-.062m104.06-.45v.047l.615.016-.001-.048zm-51.591-.682.004.156.604-.004c.056-.052-.206-.169-.608-.152m-22.868.38.003.05.606-.014-.002-.05zm77.777.427.039.01-.071.002zh-.001l-.568-.15.907.026zm-27.424-.759.307.21.904.008c-.049-.067-.567-.14-.267-.205.083-.018.929.033.408-.05-.434.013-.903.025-1.352.037M46.461 4.345c-.271.047.186.037.114.092-.046.036-.402.111-.242.152.81-.096.78-.199.128-.244m72.164-1.566c0-.033-.29-.032-.289 0 0 .034.29.033.289 0m-20.136.067q0 .051.004.102l.305-.005q-.001-.051-.005-.102zm78.116.894c-.001-.029.285-.02.284.01.001.028-.285.019-.284-.01m-21.979-.697c-.637-.02-1.165.057-1.704-.032l-.152.022c.62.118 1.419.137 1.856.01m-52.529-.994 1.061.051.768-.052-.279.08.439.068.45-.054c-.068.092.403.103.565.173.048.021-.194.031-.152.054.092.048.296.067.228.126q-.54-.045-1.083-.088l-.94.164-.739-.04c.172.072-.211.116-.207.182s.394.1.222.177l.607-.034-.307-.124c.722 0 1.209-.02 1.682-.125l.153-.002c-.04.073.44.198.931.195-.118-.158.366-.316-.019-.463l2.454-.029c.042-.139-.736-.138-1.393-.14-.425.01-.76.088-1.21.063-.766-.042-.154-.199-.173-.302.718.016 1.827.116 1.84-.075l-.934-.02.009-.072-.763.113-.466-.097c-.053.067.193.093.313.15q-.302.001-.606.01l-.009.101c-1.036.002-.951-.17-1.397-.288zM233.242 6.75c.002-.016-.313-.04-.306-.023-.009.015.307.039.306.023M86.278 3.117c-.003-.03-.291-.024-.289.007s.291.024.289-.007m-69.033 3.18-.458.02.462.007.45-.075zm75.564-3.55-.457.085q.001.026.004.05l.928.107-.321-.244q-.076 0-.154.003m25.818-.15 1.832.151-.915-.102.607-.053q-.23-.053-.46-.103-.533.052-1.064.107m-42.113.62q.004.072.01.143l.305-.009-.01-.143zM32.613 5.285c.118-.023-.641-.053-.904-.001-.119.023.64.053.903.001m47.85-2.065c-.002-.03-.289-.022-.287.009.002.03.289.022.287-.009M4.612 7.243l.007.043c.612-.05.924-.1.903-.142zm129.715-4.671c-.681-.004-.952.003-1.581.038-.352.02-.519.01-.396.106l1.503.06-.003-.155 1.236.06c.096-.118-.204-.106-.759-.11m74.587 2.492c-.514-.004-1.066-.01-1.556-.013l.002-.109zM58.797 3.746l.006.087.594-.024.026.084.308-.013-.322-.16zm24.72-.657c-.002-.03-.292-.023-.29.008 0 .03.292.023.29-.008M37.176 4.943q0 .018.003.036l1.22-.108-.16-.064zm72.596-2.445.309.203.444-.212-.177-.022zM39.921 4.802c-.004-.023-.291-.007-.289.017.002.023.292.006.289-.017m3.048-.228.007.076h.002l.304-.016q-.003-.038-.009-.077zm161.999.127c.57.013.456.033.638.083.261.071.619.101.562.167-.298-.02-.711-.017-.885-.068-.219-.065-.346-.125-.315-.182M44.49 4.49l.006.077.911-.048V4.5a5 5 0 0 0-.917-.01m8.385-.43-.45.106.61-.03q-.002-.04-.008-.083zm5.014-.167c-.002-.027-.29-.014-.287.013.001.027.289.014.287-.013M231.772 6.55l-.002.026.587.044.002-.025zm-95.146-3.909.001.052.615.005-.002-.052zm-68.974.857c-.002-.029-.29-.018-.287.01.001.03.29.018.287-.01M20.728 5.926q.003.03.008.059l.303-.022-.008-.059zm79.416-3.514c-.384.045-.397.146-.747.189-.528.064-1.017.003-.913.144.5-.044 1.004-.086 1.503-.129.053-.068.102-.137.157-.204m-45.6 1.591c-.003-.026-.29-.013-.288.014.001.026.29.013.288-.014m129.079-.235-.456.048-.153-.028.457-.048zM81.361 3.05c-.002-.03-.288-.022-.286.008.001.03.288.022.286-.008m2.153-.132.005.098.307-.008q-.001-.05-.005-.098zM39.916 4.671l.007.074.61-.034-.465-.049zm161.039-.125-.446.036h.002l-.297-.015-.447-.1 1.189.06zM18.593 6.097c-.003-.018-.29.004-.288.022s.29-.004.288-.022m79.27-3.419c0-.032-.29-.027-.289.005s.29.027.289-.005m-64.66 2.366c-.076.052.617.038.918.013-.066-.042.165-.077.292-.124zM185.43 3.861l-.149-.006-.451-.105.601.024zm41.174 2.286.304.021q.003-.027.002-.056l-.305-.022zM9.458 6.782c-.001-.015-.289.008-.287.023.001.015.29-.008.287-.023m126.695-4.56c-.337-.004-.557.044-.918.047-.424.005-.946-.013-1.391-.011-.087.127.309.11.93.11l-.312.1c.466.038.924.078 1.391.114.224-.005.361-.081.452-.094.509-.07.948-.084.93-.204h.001c-.436.008-.664-.057-1.083-.062m-46.587.447c-.142-.016-.815.122-.502.159.143.016.816-.122.502-.159m50.863-.196c-.401-.023-1.25-.05-1.356.035l1.824.122c-.171-.039-.178-.14-.468-.157m-24.257-.022.001.052.615-.003-.002-.052q-.307 0-.614.003m-25.357.168c-.109-.046-.614-.018-.893-.008.136.055.474.1.755.13.411.045.493.029.765-.04h-.001c-.403-.035-.424.002-.626-.082m-31.106 1 .007.087.307-.013-.007-.087zm79.048-1.63c-.16.082-.37.146-.519.232s-.276.212-.377.299c-.058.05.536.045.577.033.287-.09.155-.158.939-.144-.004-.017.001-.034-.002-.052l-.607-.007q-.004-.18-.011-.36m-4.918.502c-.001-.033-.285-.034-.285-.002 0 .033.286.035.285.002M244.183 7.54q-.309-.03-.889-.083l.002-.02q.58.053.889.083zM66.431 3.34l.005.091q.153-.005.305-.012l-.006-.09zm133.037 1.112-.601-.03.002-.039.601.03zM18.132 6.031l-.449.091.61-.045q-.004-.03-.01-.057zm96.497-3.676q0 .053.003.104l.309-.002q-.003-.051-.004-.103zm-45.776.8-.29.194.303-.01.593-.207zm138.212 1.698-.594-.033.003-.037.593.033zm-59.743-2.214c-.001-.032.287-.027.289.004.001.032-.29.028-.289-.004m-68.549.174c-.425.068-.498.122-.443.205.51.013 1.045-.11 1.204-.18h.002zm71.281-.104-.303-.005-.001-.101.303.005zm-68.078.203.295-.203-.607.066-.622-.128zm-24.405.824c-.002-.027-.288-.014-.286.013s.289.014.286-.013m97.37-.96c0-.032.292-.026.291.005.001.032-.292.026-.291-.006m-18.625-.292-.616-.006-.002-.103.617.005q.002.053.001.104m-25.039-.079c-.002-.032-.288-.03-.287.003 0 .032.288.03.287-.003m-15.558.084q.001.05.005.1l.611-.01-.463-.093zm51.592-.027.001.101-1.228.032c.015-.13.498-.155 1.227-.133m62.234 2.478c0-.023.294-.006.292.017 0 .022-.293.005-.292-.017m-87.589-2.585c0-.033-.288-.033-.287 0 0 .033.288.032.287 0m91.214 2.8c.002-.021.28-.004.278.017 0 .021-.279.005-.278-.017m-90.307-2.801c0-.033-.287-.032-.285 0 0 .033.287.033.285 0M.033 7.53a1 1 0 0 1 .288-.026c.002.012-.288.038-.289.026m223.205-1.706.589.04c-.031-.034.038-.05.293-.053l-.583-.086zM1.843 7.366a1 1 0 0 0-.287.026c.002.013.29-.013.287-.026m225.373-1.289-.002.028.597.044.002-.028zm-95.188-3.7c0-.033-.287-.035-.287-.002 0 .032.288.034.287.001m66.539 1.95-.303-.014.001-.08.303.016zm-58.888-1.94c.232.071 1.122.022 1.527.047.035.002.163.08.444.05.119-.011.136-.022.15-.048-.189.008-.411-.013-.594-.002-.017-.028-.007-.036-.008-.057.253.027.252-.044.287-.046.229-.013.4.013.625.005l-.018-.007c-.026-.015.032-.04-.15-.045l-.289-.003c-.228 0-.06.035-.169.05-.11.016-.351-.005-.287.046-.206 0-.403-.004-.606-.006l.6-.123-.604-.134-.908.272m59.798 1.967c.001-.025.284-.01.283.014 0 .025-.284.01-.283-.014m-30.214-1.337c.576.01.978.034 1.198.132-.572-.01-.976-.034-1.198-.132m36.012 1.663-.607-.033q0-.038.002-.075l.606.034zM117.08 2.316c0-.032-.29-.03-.29.002s.292.031.29-.002m88.504 2.363c0-.024.285-.008.284.015 0 .024-.285.008-.284-.015M46.891 4.183c-.003-.025-.29-.01-.287.016.002.025.29.009.287-.016m136.438-.603c0-.028.288-.016.287.012 0 .027-.288.016-.287-.012m5.786.009c.015.045-.027.106.001.147.059.091.393.072.763.141l-.15-.176.612-.014h-.002zm43.239 2.863c-.001-.016-.274-.037-.276-.021-.001.016.276.038.276.021m-41.102-2.64-.001.084.754.076.151-.013-.3-.118zm-30.526-1.005c0-.03.284-.024.284.007.001.03-.285.024-.284-.007m-49.161-.948.311.204.451-.107c.661.116 1.308.233 1.989.35h.003l-.333-.204-.593.001.144-.26-.915-.094zm89.71 2.55c0-.025.298-.01.297.015 0 .024-.298.008-.297-.016M92.032 2.488l.458.064.154-.028-.462-.065zM219.869 5.47l.471.094.47-.015.001-.015zm-67.995-2.905c-.001-.032.283-.027.284.005.001.031-.284.026-.284-.005M56.042 3.572q.006.063.01.127l.609-.028c-.062-.052.169-.089.291-.142zm99.812-1.001v.1l-.922-.02-.001-.05c.391.017.582-.017.923-.03m29.877 1.042-.002.043.597.025.002-.043zm1.522.064-.002.043.622.027.002-.043zM108.531 1.94l.319.359.296-.21c.531.044.9.07 1.369-.013l.431.073-.271.054.604.021-.301-.18-.916-.017-.009-.155zm1.828.318c0-.033-.288-.03-.287.003.001.032.288.03.287-.003m31.751.078c-.031.02.032.036-.007.053.115-.01.258.008.289-.023.03-.03-.212-.017-.282-.03m-48.86.126c-.003-.031-.294-.025-.292.007.001.031.293.025.291-.007m2.758-.384c-.045.091.426.12.264.222-.126.08-.554.154.366.12.072-.075.163-.154.24-.23-.288-.038-.587-.074-.87-.112m25.646-.01a3.6 3.6 0 0 0-.908.08c.279.053.477.087.911.077zm60.762 1.387c0-.027.289-.016.288.012 0 .028-.289.016-.288-.012m44.791 2.551c.001-.018-.284-.039-.286-.021-.001.018.286.039.286.021m-62.809-3.177v-.096l.615.017zM90.816 2.39q.001.05.005.1l.303-.007-.005-.1zm26.089-.88c-.303.03-.155.108-.146.157-.159-.016-.421-.053-.614-.049l-.61.212 1.23-.007c.004-.052-.016-.104-.005-.156.557.057.686.093.62.205-.938.018-.89.142-1.219.266l1.226.047.154-.105c.467.038-.089.128.769.101h-.002l-.926-.23c.709-.13.963.003.923.126l.908-.081c-.297-.086-1.025-.108-1.362-.176-.494-.1-.357-.224-.946-.31m57.265 1.62-.307-.01.001-.093.306.01zm-76.324-.806c-.002-.032-.29-.027-.288.005.001.032.29.027.288-.005m49.166.058c-.001-.032.29-.028.29.004.001.032-.29.028-.29-.004m-46.122-.236.915.139-.007-.154zm80.905 1.242-.154.016-.459-.152.307.012zM2.137 7.226l.008.04.61-.055-.009-.041zm222.906-1.407c.001-.019-.299-.04-.301-.022-.001.018.301.04.301.022M57.553 3.522c-.002-.027-.288-.014-.286.013.001.027.289.014.287-.013m100.289-.907-.04-.005.004-.001-.007-.001.486-.079q-.221.044-.443.086M38.048 4.543c-.003-.023-.292-.005-.29.017s.292.005.29-.017m200.417 2.34a1 1 0 0 0-.28-.023 1 1 0 0 0 .28.024m-72.22-4.074c-.001-.03.287-.022.288.008 0 .03-.289.022-.288-.008m-51.632-.688c-.001-.032-.294-.03-.292.003.001.032.293.03.292-.003m54.352.46c-.249.13-.099.306-1.208.296.375-.093.542-.15.304-.276l.902-.02zM52.072 3.645l.003.042.6-.03q.008.04.019.08l.305-.014.293-.14zm2.744-.034c0-.026-.29-.012-.288.015.002.026.29.012.288-.015m43.64-1.425c.554-.022.825 0 1.226.055.27.036.415-.03.601-.06l-1.076-.109zm89.723 1.426c.001-.027-.294-.04-.293-.013-.001.027.293.04.293.013m5.473.253.148.028.458-.04-.157-.028zM87.162 2.38l.004.098.61-.015-.005-.099zm48.528-.47.934.032.915.243-.317-.312c-.226-.012-.524.005-.737-.008-.361-.02-.004-.09-.337-.106zm-44.887.23c-.934.032-.962.141-.896.271.65-.07.976-.148.896-.27m24.122-.15c-.071.065.623.12.927.098l-.003-.104zm52.527.83-.303-.009v-.095l.303.009zm-74.818-.495v.025l1.233-.026c.05-.074-.15-.102-.47-.141zm84.418.723.451.107-.601-.022v-.09q.075.001.15.005m8.81.268a9.5 9.5 0 0 0-1.33.05l2.408.169c-.381-.074-.72-.146-1.078-.219M106.69 2.09c-.002-.033-.292-.03-.29.003 0 .033.291.03.29-.003m89.125 1.86c.673-.03.972.064 1.69.08.301.007.944-.055.762-.113l-1.065.022-1.383-.231c-.002.08 0 .161-.004.243M70.049 2.88l.002.046.612-.023q0-.024-.003-.046zm121.498.801c.001-.026-.286-.04-.286-.013-.001.026.287.04.286.013M135.684 2.04c0-.033-.293-.035-.292-.003 0 .033.293.035.292.003m-69.59.861.01.136.608-.025q-.006-.067-.01-.136zm19.834-.685c.06.065-.043.257.627.123.034-.007.005-.1.289-.127.225-.02.678-.025.606-.086-.4-.007-.814-.011-1.22-.017zm125.752 2.52-.001.07.6-.032zm-86.691-2.797c0-.033-.293-.034-.292 0 0 .032.293.032.292 0m-45.78.525.005.096.304-.01q-.001-.048-.005-.096zm-24.404 1.02c-.001-.027-.29-.012-.288.014.001.027.29.012.288-.014m108.658-.947c0-.03-.293-.038-.292-.008-.001.031.293.039.292.008m-72.057-.46.008.15.604-.014c.056-.051-.208-.16-.612-.136m112.659 2.16q-.002.037-.002.076l.611.035.001-.075zm-84.713-2.525c-.235-.016-.509.006-.753 0l1.075.204.102-.012c.458-.063.076-.158-.424-.192m28.568.455-.613-.01-.001-.051.613.01zm-26.28-.28c0-.034-.288-.033-.287 0 .001.032.288.032.287 0m54.063 1.042c0-.029.286-.018.287.01-.001.03-.288.02-.287-.01m-75.123-.933.002.051.91-.014-.002-.051zm25.342-.083.923.001-.002-.052c-.388.009-.58-.032-.924-.054zm61.023 1.45-.002.043 1.246.013.002-.043zm-27.739-1.208c-.651.039-.983.1-.909.224l.309-.09.903.022h.002zm-26.886-.244c0-.033-.287-.034-.286-.002 0 .033.287.035.286.002m58.327 1.58.606.113.001-.084zM114.306 1.89l.616-.004q0-.053-.003-.104h-.153zm24.754-.154.003.257.914.01-.099-.032c-.206-.075-.248-.144-.209-.228zm4.848.292c0-.032-.295-.036-.294-.004 0 .033.294.037.294.004m34.485.957c.002-.029-.282-.04-.282-.011 0 .028.282.039.282.01m-123.592.351.007.084.608-.03-.007-.084zm1.526-.013.153.014.45-.086-.154-.014zm73.268-1.556.002.104.609.003q0-.053-.003-.104zm-55.882.742c0 .031.005.062.006.093l.306-.01q-.002-.048-.006-.095zm100.449.273c.001-.03-.29-.04-.29-.01.001.029.29.039.29.01M109.58 1.515c-.592.137-1.255.103-2.118.13-.312.009-.174.103-.47.13l.921.068-.164-.101.768-.06.015.102.9-.009c.045-.12.834-.166.148-.26m-23.97.512-.6.213.918-.025-.011-.197zm107.151 1.525-.002.042.597.03.002-.042zm5.054.221c-.339.03-.632-.034-1.068-.057l.762.12.458-.035zm1.354.133c.001-.025-.285-.04-.285-.016 0 .025.285.04.285.016m-33.536-1.499.906.1c.074-.063-.07-.134-.144-.195l-.042-.048c-.036-.05-.084-.098-.424-.112-.096.085-.198.17-.296.255m-96.212.289c-.003-.03-.29-.018-.287.011.001.03.288.018.287-.011m23.188-.848.928.03.314.144-.01-.201zm2.768.117c-.002-.032-.291-.026-.29.006 0 .031.292.025.29-.006m84.104.904-.469.072.623.024q.002-.045.001-.09zm-55.11-1.27.777.156.154-.025c-.281-.039-.352-.072-.313-.131zm-65.627 1.52h.001l.153.015.455-.087-.156-.014zm1.69-.058.135-.226-.922.023zm130.822.417c.626.035 1.085.062 1.506.012l-.449-.007-.585-.064zm-152.77.76.45-.103-.92.023zm24.23-1.459-.292.191c.58-.058.661-.123.598-.205zm32.968-.997 1.08.13.151-.029-.314-.17q-.458.033-.917.069m81.07.935-.454.074.604.023a1 1 0 0 0 0-.092zm-99.692-.35c-.002-.03-.29-.02-.288.01.001.029.29.02.288-.01m50.082-.764.002.104h.307l-.002-.104zm.615.054 1.224.056-.002-.105a10 10 0 0 1-1.224-.056zm60.435 1.463-.002.128.772.079.154-.014-.615-.178zm1.54.159-.001.084.612-.055zM58.428 2.985c-.551.014-1.241.165-.44.145.27-.007.574-.124.44-.145m74.197-1.305.001.052q.301 0 .603.004.001-.027-.001-.052zm27.789.507.001.05.602.015-.001-.049zm33.539 1.343-.002.04.622.033.002-.041zM91.245 1.88l-.449.111.606-.014-.006-.1zm23.2-.355c-.88.107-1.638 0-2.586.02l.759.142 1.986-.059zM24.308 5.17 24 5.193l-.008-.062.306-.023zm122.994-3.445 1.222-.004-.304.198 1.219-.03c.121-.226-.614-.274-1.833-.336zM57.204 2.914c-.578.055-1.035.075-1.654.137-.62.062-.901.104-.76.2h.002c.567-.039.817-.15 1.42-.193.604-.043.96.008.992-.144m96.477-.913c.001-.032-.294-.038-.293-.007-.001.032.293.038.293.007m-72.362.202.305-.01c.053-.093-.04-.157-.619-.174h-.002zm25.354-.526c0-.032-.291-.029-.29.004 0 .032.291.029.29-.004m51.013.342q-.001.05.001.098l.609.015v-.098zm77.741 4.363c0-.016-.28-.04-.281-.025 0 .015.282.04.281.025m-94.249-4.647c0-.032-.287-.035-.287-.003s.288.036.287.003m-21.225-.442c-.332-.022-.357.045-.657.045-.539 0-.997.009-.55.113l1.365-.109-.906.263 1.216-.108.004.105.608-.001q0-.053-.003-.104h-.609c.057-.075-.023-.174-.468-.204m-22.738.458q0 .026.002.05l1.222-.022q-.001-.051-.005-.102zm2.74-.008c.117-.026-.64-.126-.904-.07-.12.026.639.127.903.07m50.849.173.754-.035-.001-.05-1.209-.075zm-19.395-.608.321.156.592.11-1.517-.113c.758.213 1.846.212 2.416-.008l-.3-.134q-.755-.006-1.512-.01m-43.365.628c0-.031-.29-.024-.288.007 0 .032.29.024.288-.007m75.735.199v.097l.617.018v-.097zm-74.517-.23c0-.032-.29-.025-.287.007 0 .03.288.023.287-.008m76.048.348c0-.03-.291-.04-.29-.009-.001.03.291.04.29.009m2.447.005v.095l.907.03h-.002l.001-.024a4 4 0 0 0-.906-.1M94.45 1.707l.004.1h.002l.609-.114zm78.643.642c-.864-.02-1.13.01-1.075.147q.31-.06.62-.117l1.23.09c.057-.1-.148-.105-.775-.12m.764.19c.001-.03-.291-.04-.29-.01s.29.039.29.01m-73.604-1.074c.411.059.319.138.313.225.783-.016.966-.099.901-.22zm-20.765.604.612.076-.005-.097zm23.639-.728c-.817.146.035.227.785.296.099-.07.203-.14.299-.21-.229-.003-.534.02-.747.012-.359-.013-.002-.09-.337-.098m26.758.193c0-.032-.289-.033-.288 0 .001.032.29.033.288 0m-46.433.482c-.002-.03-.291-.022-.29.009.003.03.292.022.29-.009m50.374-.587.003.155.308.002-.002-.155zm58.63 1.922c.001-.027-.285-.04-.285-.015s.285.04.285.015m1.491.076c.001-.025-.281-.04-.281-.014s.281.04.281.014m-13.07-.769c.054.059-.18.077-.309.121l.617.026.001-.134zm-23.191-.787.609.113-.001-.098zm3.63.048a2 2 0 0 0 0 .146c.4.024.659-.08.602-.13zm33.252 1.5c.001-.026-.295-.041-.295-.016-.002.026.295.042.295.016M88.648 1.821c-.002-.032-.29-.024-.287.007.002.031.29.024.287-.007m48.264-.366.616.11-.002-.103zm3.409-.012c-.309.042.373.177.513.159.309-.042-.372-.177-.513-.159m-42.813.048c-.409-.005-.666.115-.603.165l.917-.018c-.136-.055-.372-.08-.314-.147M128.07 1.2c-.5-.085-.693.034-.637.09h-.91l-.151.156.766-.079c.44.1.913.03 1.529.03-.285-.022-.506-.181-.597-.197m31.128.735c0-.03-.288-.038-.287-.007 0 .03.287.038.287.007m-17.713-.477.002.103.302.004q.001-.052-.001-.103zm36.313 1.096c.001-.029-.284-.04-.284-.012 0 .029.284.04.284.012m-53.126-1.215.001.052h.618q.001-.025-.001-.051zm-42.761.506.005.097.308-.01q-.001-.048-.005-.097zm26.289-.521c-.519-.282-1.795-.093-.761.113l.341-.11zm4.553-.037c-.268-.05-1.012.072-.892.095.269.05 1.013-.072.892-.095m46.141.542c0-.031-.287-.039-.286-.008 0 .031.287.039.286.008m-66.632-.774c-.858.024-.833.162-1.504.238l-.158-.146-.908.068-1.07-.063.312.14q-1.671.07-3.353.146l-.298.18c.868.114 1.47-.038 2.442-.094l.313.117.907-.05.164.094c1.138-.013.355-.161 1.358-.185l.309.118.458.013c.402-.075.794-.15 1.203-.225.723.057 1.7.002 2.444-.012.666-.012.913-.012 1.57-.034h-.003c.346-.011.96-.017 1.355-.024.101-.066.214-.034.302-.122s-.34-.084-.94-.098c-.243-.005-.495-.092-.749-.107-.155.068-.303.14-.456.21-1.286.042-2.062.184-2.154-.102l-1.215.082c-.212.038-.412.076-.618.114zm74.279.926.609.115V2zM99.485 1.3q-.226.045-.453.086l.611.065-.007-.153zm-18.511.236.31.086-1.514.1.47.177c.95-.064 1.928-.128 2.893-.19l.024-.033c.031-.064-.104-.047-.477-.05-.426-.003-.66-.027-1.08-.017-.001-.032-.013-.063-.018-.094zm35.46-.542.009.075.917.18q-.158-.183-.318-.363zm25.948.399c0-.033-.286-.036-.285-.004 0 .032.286.036.285.004m-38.791-.06.617-.009q0-.05-.004-.103l-.154.002zm-21.09-.092c-.22.081-.407.16-.613.24l.915-.054.025.094q.764 0 1.527.003-.149.102-.295.205l.919-.028c.126-.096-.171-.127-.468-.178-.196-.034.002-.069-.207-.09-.208-.022-.526.012-.739-.03s.031-.1-.198-.14c-.112-.018-.705.009-.866-.022m77.912.505.001.05.601.016v-.049zm-55.597-.585.003.103.612-.112zm6.419-.129.005.155.909-.008-.004-.155zm8.562-.054c0 .053.004.105.004.157.407.013.664-.105.605-.158zm37.582.539c-.756-.022-1.466-.066-1.84.052.647 0 1.174-.034 1.84-.003l.001-.05zm-50.721-.433.004.103.307-.004-.004-.103zm3.359-.091-1.526-.035q.005.103.008.207l2.128-.127-.313-.256zM64.833 2.3c-.002-.028.287-.041.288-.013s-.287.042-.288.013m25.933-.86-.303.009-.005-.1.303-.008zm23.503-.357c-.002-.032-.293-.03-.293.002 0 .033.294.031.293-.002M38.904 3.74c-.003-.023.287-.043.289-.02.003.024-.288.043-.29.02m31.08-1.667c-.001-.03-.289-.017-.287.012s.288.017.287-.012m27.208-.83-.762.067-.155-.022.914-.095zm3.343-.268c-1.117.003-1.862.109-2.12.295 1.277-.008 2.056-.054 2.729-.255l-1.213.073zm22.9-.106.005.208h.302q-.004-.105-.005-.208zM58.7 2.579l-.606.032-.007-.087.607-.031q.004.042.006.086m53.747-1.558.002.052.605-.005-.002-.052zM37.983 3.766c-.003-.023.287-.043.29-.02.002.023-.289.043-.29.02m5.78-.443q.005.037.008.077l-.609.039.45-.107zm103.832-2.05c0-.031-.289-.037-.289-.005-.001.032.29.037.289.006M124.662.922l.003.105h.926l-.003-.104zm6.432-.004.307.132.606.004-.761-.16zm60.161 1.955c-.001-.027-.287-.042-.287-.015-.001.026.287.041.287.015M65.739 2.056l.313.121.908-.11c-.355-.048-.683-.044-1.221-.011m4.235-.137c-.27-.036-1.012.1-.89.116.271.035 1.012-.1.89-.116M118.266.776l.006.208.608-.08-.001-.053-.461-.076zM53.839 2.735c-.002-.026.286-.043.289-.016.002.026-.286.042-.288.016m48.21-1.659c-.001-.032-.288-.027-.287.005s.289.027.287-.005m25.69-.253.004.156.609-.075-.46-.08zM107.26.818l-.298.21.614-.007-.01-.207zm27.791 0c-.48-.018-1.302.05-1.536.116.343.076.684.091 1.23.088zM111.224.72l-.294.262c.651-.064.978-.139.9-.268zm-21.066.562c-.002-.031.285-.039.287-.007.002.03-.285.039-.287.007M40.707 3.411l.011.113.306-.02-.012-.114zm163.055.148c.001-.023-.291-.042-.291-.018s.291.042.291.018M94.27.956c-.47-.046-.592.016-1.087.024h-.002c.537.123 1.391.026 1.246.223.201-.047.407-.093.605-.14-.239-.03-.528-.084-.762-.107M121.313.82l.003.104h.303l-.002-.105zm-47.043.868.006.094.611-.024-.464-.076zm52.24-.815.001.052q.462 0 .922.003l-.001-.052zm27.483.361 1.545.138v-.15zm2.773.02.001.149c.441.02.64-.007.915-.05a4 4 0 0 0-.916-.099M129.871.91c.001-.032-.289-.034-.288-.001 0 .033.289.034.288.001m2.435-.063.606.108-.002-.103zM63.281 2.151l.463.045.151-.03-.463-.044zm104.778-.502v.095l.605-.073zM115.808.736c-1.253.003-.338.16.004.156zm-74.19 2.67c-.002-.024-.29-.004-.287.02.002.023.29.004.287-.02M95.645 1.1c-.003-.031-.292-.025-.29.007 0 .032.292.025.29-.007M124.34.843c0-.033-.294-.033-.292 0 0 .033.294.033.292 0m-43.682.631c-.003-.03-.289-.02-.287.01s.288.02.287-.01m50.124-.61c-.001-.033-.288-.035-.287-.002 0 .032.288.034.287.001m28.117.447v.099l.304.008q.001-.049-.001-.098zm1.202.108c.001-.03-.286-.04-.286-.008.001.03.286.039.286.008M38.409 3.461c-.47.044-.923.09-1.371.135.178.047 1.323.052 1.798-.023.36-.056-.16-.116-.427-.112m30.96-1.615.003.046.606-.027q0-.022-.003-.046zm73.618-.931q-.001.051.001.102l.603.01-.455-.11zM49.842 2.782l.007.081.306-.018q-.001-.04-.006-.081zM101.435.933c-.003-.032-.289-.027-.287.005.001.033.289.027.287-.005m.606-.01c0-.033-.288-.028-.286.005 0 .032.288.027.286-.005m27.834-.194.003.104.303.001-.002-.104zM68.151 1.854l.002.046.608-.027-.004-.046zM120.094.717l.002.052.608-.002q.001-.025-.001-.051zM48.924 2.84l.005.04.612-.038q0-.02-.003-.04zm112.09-1.565v.098l.301.01v-.098zm-93.477.517.006.09.304-.013-.006-.091zM42.826 3.21c-.002-.025-.29-.005-.288.019.001.024.29.005.288-.02m59.52-2.422.912.037-.004-.103-.912-.036zm51.027.33.62.014-.467-.11-.154-.005zM107.256.715l.003.052.612-.008-.002-.052zM92.252.853c-.72.01-1.195.053-1.203.182.72-.01 1.194-.052 1.203-.182m-22.291.782.005.092q.299-.06.604-.119zM117.646.57q0 .053.003.104l.613-.003-.463-.102zm29.032.306.001.05.615.012-.001-.05zM98.388.838c-.003-.032-.29-.026-.29.006.001.032.291.026.29-.006M59.89 2.082l.007.086c.307-.007 1.001-.08.913-.135zM132.906.644l.001.052.603.005-.001-.052zm5.828-.045.002.103c.389-.005.574.037.916.063l-.003-.154zm-22.316.004.155.025.458-.08-.154-.026zm-74.82 2.614c0-.023-.29-.003-.288.02.002.024.291.004.289-.02m135.01-1.466v.09l.602.027-.451-.111zm-97.791-.479-.595.025.003.048.911-.034.142-.197zM151.24.944c.001-.032-.286-.038-.286-.007 0 .032.287.038.286.007M55.32 2.355c0-.026-.289-.01-.287.017.001.026.29.01.288-.017m1.225-.07.153.014.45-.09-.154-.013zM107.86.502c-.456.042-.674.116-1.223.12l.002.051h.001l1.227-.016zm22.923.025.002.104.605-.1zM43.422 3.055c-.001-.025-.29-.005-.287.02.003.023.289.004.287-.02M122.207.53c-.002-.033-.288-.033-.287 0 0 .033.288.033.287 0m32.085.435c.001-.032-.293-.04-.293-.007 0 .031.293.038.293.007M128.954.464q0 .052.003.104l.304.001-.002-.104zM67.222 1.669q0 .022.004.045l.607-.028-.002-.046zM117.95.49l.153.025.457-.08-.153-.025zm1.828-.138c-.343.024-.516.065-.914.056l.462.102c.31-.048.509-.083.452-.158m-39.746.805c-.002-.03-.288-.02-.287.01s.289.02.287-.01m4.903-.241.618.078q-.001-.048-.005-.098zM63.86 1.81c-.001-.028-.291-.013-.29.015.003.028.292.013.29-.015M88.598.878c-.002-.03-.29-.022-.288.009 0 .031.29.023.288-.009m-20.162.711.153.016.45-.09-.153-.016zm-27.763 1.58c-.001-.024-.29-.004-.288.02.001.023.29.003.288-.02M127.73.458l.61.002-.002-.103-.152-.001zm2.434-.015c-.001-.033-.288-.034-.287-.001 0 .032.288.034.287.001M34.259 3.517c.026.039.17.056.314.082l-.606.047.009-.05-.629-.007q.456-.038.911-.072m3.967-.21c-.001-.023-.291-.001-.289.021.001.023.291.002.29-.02m33.255-1.925.003.047.615-.027-.004-.047zm30.852-.951q0 .051.004.102l.303-.005-.004-.102zm5.21-.004c-.002-.032-.291-.028-.289.004.001.033.291.029.289-.004m9.474-.088c-.003-.033-.292-.031-.291.002.001.032.292.03.291-.002m-39.723.754-.61.024-.003-.047.61-.024zM36.378 3.336c-.002-.023-.293 0-.29.022.002.023.292 0 .29-.022m39.997-2.254-.916.037q-.001-.024-.004-.047l.917-.038.002.048M37.293 3.23c-.002-.023-.292 0-.29.022.002.023.292 0 .29-.022m1.223-.092c-.002-.023-.292-.001-.289.022.002.023.292.001.29-.022m92.569-3c-.001-.033.288-.03.288.002 0 .033-.288.03-.288-.002m-.92-.032-.305-.002-.002-.104q.153 0 .305.002z" style="fill:#6de0d9;fill:color(display-p3 .4277 .8792 .8501);fill-opacity:1"/></svg>